<svg width="16" height="17" viewBox="0 0 16 17" fill="none" xmlns="http://www.w3.org/2000/svg">
<path d="M1.02679 9.15017L12.4961 9.15017L7.48532 14.2955C7.08487 14.7067 7.08487 15.3815 7.48532 15.7927C7.88577 16.2039 8.53265 16.2039 8.9331 15.7927L15.6997 8.8444C16.1001 8.4332 16.1001 7.76895 15.6997 7.35775L8.9331 0.409474C8.53265 -0.00172931 7.88577 -0.00172926 7.48532 0.409474C7.08487 0.820677 7.08487 1.48493 7.48532 1.89613L12.4961 7.04144L1.02679 7.04144C0.462056 7.04144 -7.5054e-07 7.5159 -6.99843e-07 8.0958C-6.49147e-07 8.6757 0.462057 9.15017 1.02679 9.15017Z" fill="#9AA1B9"/>
</svg>
