<svg width="18" height="21" viewBox="0 0 18 21" fill="none" xmlns="http://www.w3.org/2000/svg">
<path fill-rule="evenodd" clip-rule="evenodd" d="M8.62761 20.8206L8.63121 20.8218C8.86761 20.925 8.99961 20.901 8.99961 20.901C8.99961 20.901 9.13161 20.925 9.36921 20.8218L9.37161 20.8206L9.37881 20.817L9.40041 20.8074C9.51432 20.7545 9.62676 20.6984 9.73761 20.6394C9.96081 20.5242 10.2728 20.3514 10.646 20.1198C11.39 19.659 12.38 18.9606 13.3748 18.0018C15.362 16.0866 17.3996 13.0926 17.3996 8.90098C17.3996 7.79787 17.1823 6.70557 16.7602 5.68644C16.3381 4.6673 15.7193 3.74129 14.9393 2.96128C14.1593 2.18127 13.2333 1.56253 12.2141 1.14039C11.195 0.718249 10.1027 0.500977 8.99961 0.500977C7.89651 0.500977 6.8042 0.718249 5.78507 1.14039C4.76593 1.56253 3.83992 2.18127 3.05991 2.96128C2.2799 3.74129 1.66116 4.6673 1.23902 5.68644C0.816882 6.70557 0.599609 7.79787 0.599609 8.90098C0.599609 13.0914 2.63721 16.0866 4.62561 18.0018C5.45811 18.8014 6.37233 19.5113 7.35321 20.1198C7.73312 20.3557 8.12395 20.5735 8.52441 20.7726L8.59881 20.8074L8.62041 20.817L8.62761 20.8206ZM8.99961 11.601C9.71569 11.601 10.4024 11.3165 10.9088 10.8102C11.4151 10.3038 11.6996 9.61706 11.6996 8.90098C11.6996 8.18489 11.4151 7.49814 10.9088 6.99179C10.4024 6.48544 9.71569 6.20098 8.99961 6.20098C8.28352 6.20098 7.59677 6.48544 7.09042 6.99179C6.58407 7.49814 6.29961 8.18489 6.29961 8.90098C6.29961 9.61706 6.58407 10.3038 7.09042 10.8102C7.59677 11.3165 8.28352 11.601 8.99961 11.601Z" fill="#FFB1C8"/>
</svg>
