<svg width="273" height="42" viewBox="0 0 273 42" fill="none" xmlns="http://www.w3.org/2000/svg">
<mask id="path-1-outside-1_9803_2902" maskUnits="userSpaceOnUse" x="-4" y="-3.84082" width="281" height="50" fill="black">
<rect fill="white" x="-4" y="-3.84082" width="281" height="50"/>
<path d="M3.578 33.5732C2.53533 33.5732 1.738 33.2818 1.186 32.6992C0.634 32.1165 0.358 31.3038 0.358 30.2612V3.62718C0.358 2.58451 0.649334 1.77184 1.232 1.18918C1.84533 0.606511 2.67333 0.315178 3.716 0.315178C4.636 0.315178 5.35667 0.499178 5.878 0.867179C6.43 1.20451 6.936 1.80251 7.396 2.66118L18.022 22.0732H16.458L27.084 2.66118C27.544 1.80251 28.0347 1.20451 28.556 0.867179C29.108 0.499178 29.8287 0.315178 30.718 0.315178C31.7607 0.315178 32.558 0.606511 33.11 1.18918C33.6927 1.77184 33.984 2.58451 33.984 3.62718V30.2612C33.984 31.3038 33.708 32.1165 33.156 32.6992C32.604 33.2818 31.8067 33.5732 30.764 33.5732C29.7213 33.5732 28.9087 33.2818 28.326 32.6992C27.774 32.1165 27.498 31.3038 27.498 30.2612V11.6312H28.51L19.954 26.9492C19.586 27.5318 19.1873 27.9765 18.758 28.2832C18.3593 28.5592 17.8227 28.6972 17.148 28.6972C16.4733 28.6972 15.9213 28.5438 15.492 28.2372C15.0627 27.9305 14.6793 27.5012 14.342 26.9492L5.694 11.5852H6.798V30.2612C6.798 31.3038 6.522 32.1165 5.97 32.6992C5.44867 33.2818 4.65133 33.5732 3.578 33.5732ZM50.7729 33.6652C48.1049 33.6652 45.8049 33.1898 43.8729 32.2392C41.9716 31.2578 40.4996 29.8932 39.4569 28.1452C38.4449 26.3665 37.9389 24.2812 37.9389 21.8892C37.9389 19.5585 38.4296 17.5192 39.4109 15.7712C40.3923 13.9925 41.7569 12.6125 43.5049 11.6312C45.2836 10.6192 47.2923 10.1132 49.5309 10.1132C51.1563 10.1132 52.6283 10.3892 53.9469 10.9412C55.2656 11.4625 56.4003 12.2292 57.3509 13.2412C58.3016 14.2225 59.0223 15.4338 59.5129 16.8752C60.0036 18.2858 60.2489 19.8652 60.2489 21.6132C60.2489 22.1958 60.0649 22.6405 59.6969 22.9472C59.3289 23.2232 58.7923 23.3612 58.0869 23.3612H43.6429V19.7732H55.2349L54.4989 20.4172C54.4989 19.1598 54.3149 18.1172 53.9469 17.2892C53.5789 16.4305 53.0423 15.7865 52.3369 15.3572C51.6623 14.9278 50.8189 14.7132 49.8069 14.7132C48.6723 14.7132 47.7063 14.9738 46.9089 15.4952C46.1116 16.0165 45.4983 16.7678 45.0689 17.7492C44.6396 18.7305 44.4249 19.9112 44.4249 21.2912V21.6592C44.4249 23.9898 44.9616 25.7072 46.0349 26.8112C47.1389 27.9152 48.7643 28.4672 50.9109 28.4672C51.6469 28.4672 52.4903 28.3752 53.4409 28.1912C54.3916 28.0072 55.2809 27.7158 56.1089 27.3172C56.8143 26.9798 57.4429 26.8725 57.9949 26.9952C58.5469 27.0872 58.9763 27.3325 59.2829 27.7312C59.5896 28.1298 59.7583 28.5898 59.7889 29.1112C59.8503 29.6325 59.7429 30.1538 59.4669 30.6752C59.1909 31.1658 58.7309 31.5798 58.0869 31.9172C57.0443 32.4998 55.8636 32.9292 54.5449 33.2052C53.2569 33.5118 51.9996 33.6652 50.7729 33.6652ZM66.957 33.5732C65.7917 33.5732 64.9023 33.2665 64.289 32.6532C63.6757 32.0398 63.369 31.1658 63.369 30.0312V13.7012C63.369 12.5665 63.6603 11.7078 64.243 11.1252C64.8563 10.5118 65.6997 10.2052 66.773 10.2052C67.877 10.2052 68.7203 10.5118 69.303 11.1252C69.8857 11.7078 70.177 12.5665 70.177 13.7012V16.0932H69.717C70.085 14.2532 70.8977 12.8272 72.155 11.8152C73.4123 10.8032 75.0377 10.2358 77.031 10.1132C77.7977 10.0518 78.3803 10.2512 78.779 10.7112C79.2083 11.1405 79.4383 11.8612 79.469 12.8732C79.5303 13.8238 79.331 14.5752 78.871 15.1272C78.4417 15.6792 77.7057 16.0165 76.663 16.1392L75.605 16.2312C73.857 16.3845 72.5537 16.8905 71.695 17.7492C70.867 18.6078 70.453 19.8498 70.453 21.4752V30.0312C70.453 31.1658 70.1463 32.0398 69.533 32.6532C68.9503 33.2665 68.0917 33.5732 66.957 33.5732ZM84.994 33.5732C83.8287 33.5732 82.9394 33.2665 82.326 32.6532C81.7127 32.0398 81.406 31.1658 81.406 30.0312V13.7012C81.406 12.5665 81.6974 11.7078 82.28 11.1252C82.8934 10.5118 83.7367 10.2052 84.81 10.2052C85.914 10.2052 86.7574 10.5118 87.34 11.1252C87.9227 11.7078 88.214 12.5665 88.214 13.7012V16.0932H87.754C88.122 14.2532 88.9347 12.8272 90.192 11.8152C91.4494 10.8032 93.0747 10.2358 95.068 10.1132C95.8347 10.0518 96.4174 10.2512 96.816 10.7112C97.2454 11.1405 97.4754 11.8612 97.506 12.8732C97.5674 13.8238 97.368 14.5752 96.908 15.1272C96.4787 15.6792 95.7427 16.0165 94.7 16.1392L93.642 16.2312C91.894 16.3845 90.5907 16.8905 89.732 17.7492C88.904 18.6078 88.49 19.8498 88.49 21.4752V30.0312C88.49 31.1658 88.1834 32.0398 87.57 32.6532C86.9874 33.2665 86.1287 33.5732 84.994 33.5732ZM107 41.8532C106.202 41.8532 105.543 41.6385 105.022 41.2092C104.5 40.7798 104.194 40.2125 104.102 39.5072C104.01 38.8325 104.132 38.1118 104.47 37.3452L107.552 30.5372V33.3892L99.4097 14.7132C99.103 13.9158 98.9957 13.1798 99.0877 12.5052C99.2103 11.7998 99.5477 11.2478 100.1 10.8492C100.682 10.4198 101.48 10.2052 102.492 10.2052C103.32 10.2052 103.979 10.4045 104.47 10.8032C104.991 11.1712 105.466 11.8918 105.896 12.9652L111.324 26.7652H109.852L115.464 12.9192C115.893 11.8765 116.368 11.1712 116.89 10.8032C117.442 10.4045 118.178 10.2052 119.098 10.2052C119.895 10.2052 120.524 10.4198 120.984 10.8492C121.474 11.2478 121.766 11.7845 121.858 12.4592C121.98 13.1338 121.858 13.8698 121.49 14.6672L110.68 39.1852C110.22 40.2278 109.698 40.9332 109.116 41.3012C108.564 41.6692 107.858 41.8532 107 41.8532ZM140.281 33.5732C139.238 33.5732 138.441 33.2818 137.889 32.6992C137.337 32.1165 137.061 31.3038 137.061 30.2612V3.62718C137.061 2.58451 137.352 1.77184 137.935 1.18918C138.548 0.606511 139.376 0.315178 140.419 0.315178C141.339 0.315178 142.059 0.499178 142.581 0.867179C143.133 1.20451 143.639 1.80251 144.099 2.66118L154.725 22.0732H153.161L163.787 2.66118C164.247 1.80251 164.737 1.20451 165.259 0.867179C165.811 0.499178 166.531 0.315178 167.421 0.315178C168.463 0.315178 169.261 0.606511 169.813 1.18918C170.395 1.77184 170.687 2.58451 170.687 3.62718V30.2612C170.687 31.3038 170.411 32.1165 169.859 32.6992C169.307 33.2818 168.509 33.5732 167.467 33.5732C166.424 33.5732 165.611 33.2818 165.029 32.6992C164.477 32.1165 164.201 31.3038 164.201 30.2612V11.6312H165.213L156.657 26.9492C156.289 27.5318 155.89 27.9765 155.461 28.2832C155.062 28.5592 154.525 28.6972 153.851 28.6972C153.176 28.6972 152.624 28.5438 152.195 28.2372C151.765 27.9305 151.382 27.5012 151.045 26.9492L142.397 11.5852H143.501V30.2612C143.501 31.3038 143.225 32.1165 142.673 32.6992C142.151 33.2818 141.354 33.5732 140.281 33.5732ZM183.382 33.6652C181.726 33.6652 180.238 33.3432 178.92 32.6992C177.601 32.0552 176.574 31.1812 175.838 30.0772C175.102 28.9732 174.734 27.7312 174.734 26.3512C174.734 24.6952 175.163 23.3918 176.022 22.4412C176.88 21.4598 178.276 20.7698 180.208 20.3712C182.14 19.9418 184.7 19.7272 187.89 19.7272H190.328V23.3152H187.936C186.372 23.3152 185.099 23.4072 184.118 23.5912C183.167 23.7445 182.477 24.0205 182.048 24.4192C181.649 24.8178 181.45 25.3698 181.45 26.0752C181.45 26.9338 181.741 27.6392 182.324 28.1912C182.937 28.7432 183.811 29.0192 184.946 29.0192C185.835 29.0192 186.617 28.8198 187.292 28.4212C187.997 27.9918 188.549 27.4245 188.948 26.7192C189.346 25.9832 189.546 25.1552 189.546 24.2352V18.9452C189.546 17.5958 189.239 16.6452 188.626 16.0932C188.012 15.5105 186.97 15.2192 185.498 15.2192C184.67 15.2192 183.765 15.3265 182.784 15.5412C181.833 15.7252 180.775 16.0472 179.61 16.5072C178.935 16.8138 178.337 16.8905 177.816 16.7372C177.294 16.5532 176.896 16.2465 176.62 15.8172C176.344 15.3572 176.206 14.8665 176.206 14.3452C176.206 13.7932 176.359 13.2718 176.666 12.7812C176.972 12.2598 177.478 11.8765 178.184 11.6312C179.625 11.0485 180.974 10.6498 182.232 10.4352C183.52 10.2205 184.7 10.1132 185.774 10.1132C188.135 10.1132 190.067 10.4658 191.57 11.1712C193.103 11.8458 194.253 12.9038 195.02 14.3452C195.786 15.7558 196.17 17.5805 196.17 19.8192V30.0312C196.17 31.1658 195.894 32.0398 195.342 32.6532C194.79 33.2665 193.992 33.5732 192.95 33.5732C191.907 33.5732 191.094 33.2665 190.512 32.6532C189.96 32.0398 189.684 31.1658 189.684 30.0312V28.3292L190.006 28.6052C189.822 29.6478 189.423 30.5525 188.81 31.3192C188.227 32.0552 187.476 32.6378 186.556 33.0672C185.636 33.4658 184.578 33.6652 183.382 33.6652ZM211.517 33.6652C209.401 33.6652 207.622 33.3125 206.181 32.6072C204.77 31.9018 203.712 30.8745 203.007 29.5252C202.332 28.1758 201.995 26.4738 201.995 24.4192V15.7712H200.063C199.204 15.7712 198.53 15.5412 198.039 15.0812C197.579 14.6212 197.349 13.9925 197.349 13.1952C197.349 12.3365 197.579 11.6925 198.039 11.2632C198.53 10.8032 199.204 10.5732 200.063 10.5732H201.995V7.07718C201.995 5.91185 202.302 5.03785 202.915 4.45518C203.528 3.84184 204.387 3.53518 205.491 3.53518C206.626 3.53518 207.484 3.84184 208.067 4.45518C208.65 5.03785 208.941 5.91185 208.941 7.07718V10.5732H213.311C214.17 10.5732 214.829 10.8032 215.289 11.2632C215.749 11.6925 215.979 12.3365 215.979 13.1952C215.979 13.9925 215.749 14.6212 215.289 15.0812C214.829 15.5412 214.17 15.7712 213.311 15.7712H208.941V24.1432C208.941 25.4312 209.232 26.3972 209.815 27.0412C210.428 27.6852 211.394 28.0072 212.713 28.0072C213.173 28.0072 213.602 27.9612 214.001 27.8692C214.4 27.7772 214.768 27.7158 215.105 27.6852C215.534 27.6545 215.887 27.7925 216.163 28.0992C216.439 28.3752 216.577 29.0038 216.577 29.9852C216.577 30.7212 216.454 31.3652 216.209 31.9172C215.964 32.4692 215.534 32.8678 214.921 33.1132C214.522 33.2665 213.97 33.3892 213.265 33.4812C212.59 33.6038 212.008 33.6652 211.517 33.6652ZM228.878 33.6652C226.425 33.6652 224.278 33.1898 222.438 32.2392C220.629 31.2578 219.233 29.8778 218.252 28.0992C217.271 26.3205 216.78 24.2198 216.78 21.7972C216.78 19.9878 217.056 18.3625 217.608 16.9212C218.16 15.4798 218.957 14.2532 220 13.2412C221.073 12.2292 222.361 11.4625 223.864 10.9412C225.367 10.3892 227.038 10.1132 228.878 10.1132C229.829 10.1132 230.841 10.2358 231.914 10.4812C232.987 10.6958 234.045 11.0792 235.088 11.6312C235.701 11.9072 236.115 12.3058 236.33 12.8272C236.575 13.3178 236.667 13.8392 236.606 14.3912C236.545 14.9125 236.345 15.3878 236.008 15.8172C235.701 16.2158 235.303 16.4918 234.812 16.6452C234.321 16.7678 233.769 16.6758 233.156 16.3692C232.573 16.0318 231.96 15.7865 231.316 15.6332C230.703 15.4798 230.12 15.4032 229.568 15.4032C228.648 15.4032 227.835 15.5565 227.13 15.8632C226.425 16.1392 225.827 16.5532 225.336 17.1052C224.876 17.6265 224.508 18.2858 224.232 19.0832C223.987 19.8805 223.864 20.8005 223.864 21.8432C223.864 23.8672 224.355 25.4618 225.336 26.6272C226.348 27.7618 227.759 28.3292 229.568 28.3292C230.12 28.3292 230.703 28.2678 231.316 28.1452C231.929 27.9918 232.543 27.7465 233.156 27.4092C233.769 27.1025 234.321 27.0258 234.812 27.1792C235.303 27.3325 235.686 27.6238 235.962 28.0532C236.269 28.4518 236.437 28.9272 236.468 29.4792C236.529 30.0005 236.437 30.5218 236.192 31.0432C235.977 31.5338 235.579 31.9172 234.996 32.1932C233.953 32.7145 232.911 33.0825 231.868 33.2972C230.825 33.5425 229.829 33.6652 228.878 33.6652ZM242.427 33.5732C241.292 33.5732 240.418 33.2665 239.805 32.6532C239.222 32.0398 238.931 31.1658 238.931 30.0312V3.85718C238.931 2.69185 239.222 1.81785 239.805 1.23518C240.418 0.621845 241.292 0.315178 242.427 0.315178C243.531 0.315178 244.374 0.621845 244.957 1.23518C245.57 1.81785 245.877 2.69185 245.877 3.85718V14.8052H245.233C245.938 13.3025 246.981 12.1525 248.361 11.3552C249.772 10.5272 251.366 10.1132 253.145 10.1132C254.954 10.1132 256.442 10.4658 257.607 11.1712C258.772 11.8458 259.646 12.8885 260.229 14.2992C260.812 15.6792 261.103 17.4425 261.103 19.5892V30.0312C261.103 31.1658 260.796 32.0398 260.183 32.6532C259.6 33.2665 258.742 33.5732 257.607 33.5732C256.503 33.5732 255.644 33.2665 255.031 32.6532C254.448 32.0398 254.157 31.1658 254.157 30.0312V19.9112C254.157 18.3472 253.866 17.2278 253.283 16.5532C252.731 15.8478 251.872 15.4952 250.707 15.4952C249.235 15.4952 248.054 15.9552 247.165 16.8752C246.306 17.7952 245.877 19.0218 245.877 20.5552V30.0312C245.877 32.3925 244.727 33.5732 242.427 33.5732ZM268.726 23.1772C268.021 23.1772 267.469 22.9625 267.07 22.5332C266.672 22.1038 266.426 21.4752 266.334 20.6472L264.862 4.91518C264.709 3.53518 264.97 2.43118 265.644 1.60318C266.319 0.744511 267.346 0.315178 268.726 0.315178C270.045 0.315178 271.042 0.744511 271.716 1.60318C272.391 2.43118 272.652 3.53518 272.498 4.91518L271.026 20.6472C270.934 21.4752 270.689 22.1038 270.29 22.5332C269.922 22.9625 269.401 23.1772 268.726 23.1772ZM268.726 33.3892C267.5 33.3892 266.518 33.0212 265.782 32.2852C265.077 31.5492 264.724 30.5985 264.724 29.4332C264.724 28.2985 265.077 27.3785 265.782 26.6732C266.518 25.9372 267.5 25.5692 268.726 25.5692C269.953 25.5692 270.904 25.9372 271.578 26.6732C272.284 27.3785 272.636 28.2985 272.636 29.4332C272.636 30.5985 272.284 31.5492 271.578 32.2852C270.904 33.0212 269.953 33.3892 268.726 33.3892Z"/>
</mask>
<path d="M3.578 33.5732C2.53533 33.5732 1.738 33.2818 1.186 32.6992C0.634 32.1165 0.358 31.3038 0.358 30.2612V3.62718C0.358 2.58451 0.649334 1.77184 1.232 1.18918C1.84533 0.606511 2.67333 0.315178 3.716 0.315178C4.636 0.315178 5.35667 0.499178 5.878 0.867179C6.43 1.20451 6.936 1.80251 7.396 2.66118L18.022 22.0732H16.458L27.084 2.66118C27.544 1.80251 28.0347 1.20451 28.556 0.867179C29.108 0.499178 29.8287 0.315178 30.718 0.315178C31.7607 0.315178 32.558 0.606511 33.11 1.18918C33.6927 1.77184 33.984 2.58451 33.984 3.62718V30.2612C33.984 31.3038 33.708 32.1165 33.156 32.6992C32.604 33.2818 31.8067 33.5732 30.764 33.5732C29.7213 33.5732 28.9087 33.2818 28.326 32.6992C27.774 32.1165 27.498 31.3038 27.498 30.2612V11.6312H28.51L19.954 26.9492C19.586 27.5318 19.1873 27.9765 18.758 28.2832C18.3593 28.5592 17.8227 28.6972 17.148 28.6972C16.4733 28.6972 15.9213 28.5438 15.492 28.2372C15.0627 27.9305 14.6793 27.5012 14.342 26.9492L5.694 11.5852H6.798V30.2612C6.798 31.3038 6.522 32.1165 5.97 32.6992C5.44867 33.2818 4.65133 33.5732 3.578 33.5732ZM50.7729 33.6652C48.1049 33.6652 45.8049 33.1898 43.8729 32.2392C41.9716 31.2578 40.4996 29.8932 39.4569 28.1452C38.4449 26.3665 37.9389 24.2812 37.9389 21.8892C37.9389 19.5585 38.4296 17.5192 39.4109 15.7712C40.3923 13.9925 41.7569 12.6125 43.5049 11.6312C45.2836 10.6192 47.2923 10.1132 49.5309 10.1132C51.1563 10.1132 52.6283 10.3892 53.9469 10.9412C55.2656 11.4625 56.4003 12.2292 57.3509 13.2412C58.3016 14.2225 59.0223 15.4338 59.5129 16.8752C60.0036 18.2858 60.2489 19.8652 60.2489 21.6132C60.2489 22.1958 60.0649 22.6405 59.6969 22.9472C59.3289 23.2232 58.7923 23.3612 58.0869 23.3612H43.6429V19.7732H55.2349L54.4989 20.4172C54.4989 19.1598 54.3149 18.1172 53.9469 17.2892C53.5789 16.4305 53.0423 15.7865 52.3369 15.3572C51.6623 14.9278 50.8189 14.7132 49.8069 14.7132C48.6723 14.7132 47.7063 14.9738 46.9089 15.4952C46.1116 16.0165 45.4983 16.7678 45.0689 17.7492C44.6396 18.7305 44.4249 19.9112 44.4249 21.2912V21.6592C44.4249 23.9898 44.9616 25.7072 46.0349 26.8112C47.1389 27.9152 48.7643 28.4672 50.9109 28.4672C51.6469 28.4672 52.4903 28.3752 53.4409 28.1912C54.3916 28.0072 55.2809 27.7158 56.1089 27.3172C56.8143 26.9798 57.4429 26.8725 57.9949 26.9952C58.5469 27.0872 58.9763 27.3325 59.2829 27.7312C59.5896 28.1298 59.7583 28.5898 59.7889 29.1112C59.8503 29.6325 59.7429 30.1538 59.4669 30.6752C59.1909 31.1658 58.7309 31.5798 58.0869 31.9172C57.0443 32.4998 55.8636 32.9292 54.5449 33.2052C53.2569 33.5118 51.9996 33.6652 50.7729 33.6652ZM66.957 33.5732C65.7917 33.5732 64.9023 33.2665 64.289 32.6532C63.6757 32.0398 63.369 31.1658 63.369 30.0312V13.7012C63.369 12.5665 63.6603 11.7078 64.243 11.1252C64.8563 10.5118 65.6997 10.2052 66.773 10.2052C67.877 10.2052 68.7203 10.5118 69.303 11.1252C69.8857 11.7078 70.177 12.5665 70.177 13.7012V16.0932H69.717C70.085 14.2532 70.8977 12.8272 72.155 11.8152C73.4123 10.8032 75.0377 10.2358 77.031 10.1132C77.7977 10.0518 78.3803 10.2512 78.779 10.7112C79.2083 11.1405 79.4383 11.8612 79.469 12.8732C79.5303 13.8238 79.331 14.5752 78.871 15.1272C78.4417 15.6792 77.7057 16.0165 76.663 16.1392L75.605 16.2312C73.857 16.3845 72.5537 16.8905 71.695 17.7492C70.867 18.6078 70.453 19.8498 70.453 21.4752V30.0312C70.453 31.1658 70.1463 32.0398 69.533 32.6532C68.9503 33.2665 68.0917 33.5732 66.957 33.5732ZM84.994 33.5732C83.8287 33.5732 82.9394 33.2665 82.326 32.6532C81.7127 32.0398 81.406 31.1658 81.406 30.0312V13.7012C81.406 12.5665 81.6974 11.7078 82.28 11.1252C82.8934 10.5118 83.7367 10.2052 84.81 10.2052C85.914 10.2052 86.7574 10.5118 87.34 11.1252C87.9227 11.7078 88.214 12.5665 88.214 13.7012V16.0932H87.754C88.122 14.2532 88.9347 12.8272 90.192 11.8152C91.4494 10.8032 93.0747 10.2358 95.068 10.1132C95.8347 10.0518 96.4174 10.2512 96.816 10.7112C97.2454 11.1405 97.4754 11.8612 97.506 12.8732C97.5674 13.8238 97.368 14.5752 96.908 15.1272C96.4787 15.6792 95.7427 16.0165 94.7 16.1392L93.642 16.2312C91.894 16.3845 90.5907 16.8905 89.732 17.7492C88.904 18.6078 88.49 19.8498 88.49 21.4752V30.0312C88.49 31.1658 88.1834 32.0398 87.57 32.6532C86.9874 33.2665 86.1287 33.5732 84.994 33.5732ZM107 41.8532C106.202 41.8532 105.543 41.6385 105.022 41.2092C104.5 40.7798 104.194 40.2125 104.102 39.5072C104.01 38.8325 104.132 38.1118 104.47 37.3452L107.552 30.5372V33.3892L99.4097 14.7132C99.103 13.9158 98.9957 13.1798 99.0877 12.5052C99.2103 11.7998 99.5477 11.2478 100.1 10.8492C100.682 10.4198 101.48 10.2052 102.492 10.2052C103.32 10.2052 103.979 10.4045 104.47 10.8032C104.991 11.1712 105.466 11.8918 105.896 12.9652L111.324 26.7652H109.852L115.464 12.9192C115.893 11.8765 116.368 11.1712 116.89 10.8032C117.442 10.4045 118.178 10.2052 119.098 10.2052C119.895 10.2052 120.524 10.4198 120.984 10.8492C121.474 11.2478 121.766 11.7845 121.858 12.4592C121.98 13.1338 121.858 13.8698 121.49 14.6672L110.68 39.1852C110.22 40.2278 109.698 40.9332 109.116 41.3012C108.564 41.6692 107.858 41.8532 107 41.8532ZM140.281 33.5732C139.238 33.5732 138.441 33.2818 137.889 32.6992C137.337 32.1165 137.061 31.3038 137.061 30.2612V3.62718C137.061 2.58451 137.352 1.77184 137.935 1.18918C138.548 0.606511 139.376 0.315178 140.419 0.315178C141.339 0.315178 142.059 0.499178 142.581 0.867179C143.133 1.20451 143.639 1.80251 144.099 2.66118L154.725 22.0732H153.161L163.787 2.66118C164.247 1.80251 164.737 1.20451 165.259 0.867179C165.811 0.499178 166.531 0.315178 167.421 0.315178C168.463 0.315178 169.261 0.606511 169.813 1.18918C170.395 1.77184 170.687 2.58451 170.687 3.62718V30.2612C170.687 31.3038 170.411 32.1165 169.859 32.6992C169.307 33.2818 168.509 33.5732 167.467 33.5732C166.424 33.5732 165.611 33.2818 165.029 32.6992C164.477 32.1165 164.201 31.3038 164.201 30.2612V11.6312H165.213L156.657 26.9492C156.289 27.5318 155.89 27.9765 155.461 28.2832C155.062 28.5592 154.525 28.6972 153.851 28.6972C153.176 28.6972 152.624 28.5438 152.195 28.2372C151.765 27.9305 151.382 27.5012 151.045 26.9492L142.397 11.5852H143.501V30.2612C143.501 31.3038 143.225 32.1165 142.673 32.6992C142.151 33.2818 141.354 33.5732 140.281 33.5732ZM183.382 33.6652C181.726 33.6652 180.238 33.3432 178.92 32.6992C177.601 32.0552 176.574 31.1812 175.838 30.0772C175.102 28.9732 174.734 27.7312 174.734 26.3512C174.734 24.6952 175.163 23.3918 176.022 22.4412C176.88 21.4598 178.276 20.7698 180.208 20.3712C182.14 19.9418 184.7 19.7272 187.89 19.7272H190.328V23.3152H187.936C186.372 23.3152 185.099 23.4072 184.118 23.5912C183.167 23.7445 182.477 24.0205 182.048 24.4192C181.649 24.8178 181.45 25.3698 181.45 26.0752C181.45 26.9338 181.741 27.6392 182.324 28.1912C182.937 28.7432 183.811 29.0192 184.946 29.0192C185.835 29.0192 186.617 28.8198 187.292 28.4212C187.997 27.9918 188.549 27.4245 188.948 26.7192C189.346 25.9832 189.546 25.1552 189.546 24.2352V18.9452C189.546 17.5958 189.239 16.6452 188.626 16.0932C188.012 15.5105 186.97 15.2192 185.498 15.2192C184.67 15.2192 183.765 15.3265 182.784 15.5412C181.833 15.7252 180.775 16.0472 179.61 16.5072C178.935 16.8138 178.337 16.8905 177.816 16.7372C177.294 16.5532 176.896 16.2465 176.62 15.8172C176.344 15.3572 176.206 14.8665 176.206 14.3452C176.206 13.7932 176.359 13.2718 176.666 12.7812C176.972 12.2598 177.478 11.8765 178.184 11.6312C179.625 11.0485 180.974 10.6498 182.232 10.4352C183.52 10.2205 184.7 10.1132 185.774 10.1132C188.135 10.1132 190.067 10.4658 191.57 11.1712C193.103 11.8458 194.253 12.9038 195.02 14.3452C195.786 15.7558 196.17 17.5805 196.17 19.8192V30.0312C196.17 31.1658 195.894 32.0398 195.342 32.6532C194.79 33.2665 193.992 33.5732 192.95 33.5732C191.907 33.5732 191.094 33.2665 190.512 32.6532C189.96 32.0398 189.684 31.1658 189.684 30.0312V28.3292L190.006 28.6052C189.822 29.6478 189.423 30.5525 188.81 31.3192C188.227 32.0552 187.476 32.6378 186.556 33.0672C185.636 33.4658 184.578 33.6652 183.382 33.6652ZM211.517 33.6652C209.401 33.6652 207.622 33.3125 206.181 32.6072C204.77 31.9018 203.712 30.8745 203.007 29.5252C202.332 28.1758 201.995 26.4738 201.995 24.4192V15.7712H200.063C199.204 15.7712 198.53 15.5412 198.039 15.0812C197.579 14.6212 197.349 13.9925 197.349 13.1952C197.349 12.3365 197.579 11.6925 198.039 11.2632C198.53 10.8032 199.204 10.5732 200.063 10.5732H201.995V7.07718C201.995 5.91185 202.302 5.03785 202.915 4.45518C203.528 3.84184 204.387 3.53518 205.491 3.53518C206.626 3.53518 207.484 3.84184 208.067 4.45518C208.65 5.03785 208.941 5.91185 208.941 7.07718V10.5732H213.311C214.17 10.5732 214.829 10.8032 215.289 11.2632C215.749 11.6925 215.979 12.3365 215.979 13.1952C215.979 13.9925 215.749 14.6212 215.289 15.0812C214.829 15.5412 214.17 15.7712 213.311 15.7712H208.941V24.1432C208.941 25.4312 209.232 26.3972 209.815 27.0412C210.428 27.6852 211.394 28.0072 212.713 28.0072C213.173 28.0072 213.602 27.9612 214.001 27.8692C214.4 27.7772 214.768 27.7158 215.105 27.6852C215.534 27.6545 215.887 27.7925 216.163 28.0992C216.439 28.3752 216.577 29.0038 216.577 29.9852C216.577 30.7212 216.454 31.3652 216.209 31.9172C215.964 32.4692 215.534 32.8678 214.921 33.1132C214.522 33.2665 213.97 33.3892 213.265 33.4812C212.59 33.6038 212.008 33.6652 211.517 33.6652ZM228.878 33.6652C226.425 33.6652 224.278 33.1898 222.438 32.2392C220.629 31.2578 219.233 29.8778 218.252 28.0992C217.271 26.3205 216.78 24.2198 216.78 21.7972C216.78 19.9878 217.056 18.3625 217.608 16.9212C218.16 15.4798 218.957 14.2532 220 13.2412C221.073 12.2292 222.361 11.4625 223.864 10.9412C225.367 10.3892 227.038 10.1132 228.878 10.1132C229.829 10.1132 230.841 10.2358 231.914 10.4812C232.987 10.6958 234.045 11.0792 235.088 11.6312C235.701 11.9072 236.115 12.3058 236.33 12.8272C236.575 13.3178 236.667 13.8392 236.606 14.3912C236.545 14.9125 236.345 15.3878 236.008 15.8172C235.701 16.2158 235.303 16.4918 234.812 16.6452C234.321 16.7678 233.769 16.6758 233.156 16.3692C232.573 16.0318 231.96 15.7865 231.316 15.6332C230.703 15.4798 230.12 15.4032 229.568 15.4032C228.648 15.4032 227.835 15.5565 227.13 15.8632C226.425 16.1392 225.827 16.5532 225.336 17.1052C224.876 17.6265 224.508 18.2858 224.232 19.0832C223.987 19.8805 223.864 20.8005 223.864 21.8432C223.864 23.8672 224.355 25.4618 225.336 26.6272C226.348 27.7618 227.759 28.3292 229.568 28.3292C230.12 28.3292 230.703 28.2678 231.316 28.1452C231.929 27.9918 232.543 27.7465 233.156 27.4092C233.769 27.1025 234.321 27.0258 234.812 27.1792C235.303 27.3325 235.686 27.6238 235.962 28.0532C236.269 28.4518 236.437 28.9272 236.468 29.4792C236.529 30.0005 236.437 30.5218 236.192 31.0432C235.977 31.5338 235.579 31.9172 234.996 32.1932C233.953 32.7145 232.911 33.0825 231.868 33.2972C230.825 33.5425 229.829 33.6652 228.878 33.6652ZM242.427 33.5732C241.292 33.5732 240.418 33.2665 239.805 32.6532C239.222 32.0398 238.931 31.1658 238.931 30.0312V3.85718C238.931 2.69185 239.222 1.81785 239.805 1.23518C240.418 0.621845 241.292 0.315178 242.427 0.315178C243.531 0.315178 244.374 0.621845 244.957 1.23518C245.57 1.81785 245.877 2.69185 245.877 3.85718V14.8052H245.233C245.938 13.3025 246.981 12.1525 248.361 11.3552C249.772 10.5272 251.366 10.1132 253.145 10.1132C254.954 10.1132 256.442 10.4658 257.607 11.1712C258.772 11.8458 259.646 12.8885 260.229 14.2992C260.812 15.6792 261.103 17.4425 261.103 19.5892V30.0312C261.103 31.1658 260.796 32.0398 260.183 32.6532C259.6 33.2665 258.742 33.5732 257.607 33.5732C256.503 33.5732 255.644 33.2665 255.031 32.6532C254.448 32.0398 254.157 31.1658 254.157 30.0312V19.9112C254.157 18.3472 253.866 17.2278 253.283 16.5532C252.731 15.8478 251.872 15.4952 250.707 15.4952C249.235 15.4952 248.054 15.9552 247.165 16.8752C246.306 17.7952 245.877 19.0218 245.877 20.5552V30.0312C245.877 32.3925 244.727 33.5732 242.427 33.5732ZM268.726 23.1772C268.021 23.1772 267.469 22.9625 267.07 22.5332C266.672 22.1038 266.426 21.4752 266.334 20.6472L264.862 4.91518C264.709 3.53518 264.97 2.43118 265.644 1.60318C266.319 0.744511 267.346 0.315178 268.726 0.315178C270.045 0.315178 271.042 0.744511 271.716 1.60318C272.391 2.43118 272.652 3.53518 272.498 4.91518L271.026 20.6472C270.934 21.4752 270.689 22.1038 270.29 22.5332C269.922 22.9625 269.401 23.1772 268.726 23.1772ZM268.726 33.3892C267.5 33.3892 266.518 33.0212 265.782 32.2852C265.077 31.5492 264.724 30.5985 264.724 29.4332C264.724 28.2985 265.077 27.3785 265.782 26.6732C266.518 25.9372 267.5 25.5692 268.726 25.5692C269.953 25.5692 270.904 25.9372 271.578 26.6732C272.284 27.3785 272.636 28.2985 272.636 29.4332C272.636 30.5985 272.284 31.5492 271.578 32.2852C270.904 33.0212 269.953 33.3892 268.726 33.3892Z" fill="#FF1659"/>
<path d="M1.186 32.6992L4.08981 29.9482H4.08981L1.186 32.6992ZM1.232 1.18918L-1.523 -1.71082L-1.56017 -1.67551L-1.59643 -1.63925L1.232 1.18918ZM5.878 0.867179L3.57126 4.13505L3.67933 4.21133L3.7922 4.28031L5.878 0.867179ZM7.396 2.66118L3.87008 4.55006L3.87861 4.56598L3.88728 4.58183L7.396 2.66118ZM18.022 22.0732V26.0732H24.7716L21.5307 20.1525L18.022 22.0732ZM16.458 22.0732L12.9493 20.1525L9.70836 26.0732H16.458V22.0732ZM27.084 2.66118L30.5927 4.58183L30.6014 4.56598L30.6099 4.55006L27.084 2.66118ZM28.556 0.867179L30.729 4.22546L30.752 4.21058L30.7748 4.19538L28.556 0.867179ZM33.11 1.18918L30.2062 3.94016L30.2434 3.97939L30.2816 4.0176L33.11 1.18918ZM33.156 32.6992L30.2522 29.9482L33.156 32.6992ZM28.326 32.6992L25.4222 35.4502L25.4594 35.4894L25.4976 35.5276L28.326 32.6992ZM27.498 11.6312V7.63118H23.498V11.6312H27.498ZM28.51 11.6312L32.0022 13.5818L35.3259 7.63118H28.51V11.6312ZM19.954 26.9492L23.336 29.0852L23.3936 28.9939L23.4462 28.8998L19.954 26.9492ZM18.758 28.2832L21.0348 31.5719L21.059 31.5552L21.083 31.5381L18.758 28.2832ZM15.492 28.2372L17.817 24.9822L15.492 28.2372ZM14.342 26.9492L10.8563 28.9112L10.8915 28.9738L10.9289 29.035L14.342 26.9492ZM5.694 11.5852V7.58518H-1.14762L2.20826 13.5472L5.694 11.5852ZM6.798 11.5852H10.798V7.58518H6.798V11.5852ZM5.97 32.6992L3.06619 29.9482L3.02702 29.9896L2.98904 30.032L5.97 32.6992ZM3.578 29.5732C3.42175 29.5732 3.44211 29.5506 3.57077 29.5976C3.71902 29.6518 3.91568 29.7644 4.08981 29.9482L-1.71781 35.4502C-0.201843 37.0503 1.78239 37.5732 3.578 37.5732V29.5732ZM4.08981 29.9482C4.15855 30.0208 4.21706 30.0992 4.26369 30.1778C4.30989 30.2556 4.33734 30.3216 4.35253 30.3663C4.38172 30.4523 4.358 30.4358 4.358 30.2612H-3.642C-3.642 32.0108 -3.1648 33.9228 -1.71781 35.4502L4.08981 29.9482ZM4.358 30.2612V3.62718H-3.642V30.2612H4.358ZM4.358 3.62718C4.358 3.47324 4.37993 3.47933 4.34186 3.58552C4.3224 3.6398 4.29008 3.71193 4.23952 3.79265C4.18862 3.87391 4.12768 3.95035 4.06043 4.0176L-1.59643 -1.63925C-3.11548 -0.120199 -3.642 1.81978 -3.642 3.62718H4.358ZM3.987 4.08918C3.93341 4.14008 3.872 4.18725 3.80626 4.22711C3.74091 4.26673 3.68316 4.29196 3.64062 4.30693C3.55645 4.33654 3.56409 4.31518 3.716 4.31518V-3.68482C1.89896 -3.68482 -0.00229335 -3.15549 -1.523 -1.71082L3.987 4.08918ZM3.716 4.31518C3.91757 4.31518 3.98563 4.33617 3.95697 4.32885C3.92176 4.31986 3.76902 4.27464 3.57126 4.13505L8.18474 -2.40069C6.75018 -3.41332 5.11233 -3.68482 3.716 -3.68482V4.31518ZM3.7922 4.28031C3.6358 4.18473 3.58487 4.11334 3.61796 4.15245C3.65198 4.19266 3.7421 4.31117 3.87008 4.55006L10.9219 0.772291C10.2832 -0.4199 9.35497 -1.69579 7.9638 -2.54595L3.7922 4.28031ZM3.88728 4.58183L14.5133 23.9938L21.5307 20.1525L10.9047 0.740528L3.88728 4.58183ZM18.022 18.0732H16.458V26.0732H18.022V18.0732ZM19.9667 23.9938L30.5927 4.58183L23.5753 0.740528L12.9493 20.1525L19.9667 23.9938ZM30.6099 4.55006C30.7469 4.29431 30.8453 4.15955 30.8893 4.10595C30.9341 4.05139 30.8884 4.12231 30.729 4.22546L26.383 -2.49111C25.0593 -1.63459 24.1729 -0.37538 23.5581 0.772293L30.6099 4.55006ZM30.7748 4.19538C30.7056 4.24153 30.6431 4.27375 30.5933 4.29536C30.544 4.31673 30.511 4.32604 30.5 4.32885C30.4813 4.33364 30.5442 4.31518 30.718 4.31518V-3.68482C29.302 -3.68482 27.7355 -3.39321 26.3372 -2.46102L30.7748 4.19538ZM30.718 4.31518C30.8743 4.31518 30.8539 4.33775 30.7252 4.29074C30.577 4.23657 30.3803 4.12396 30.2062 3.94016L36.0138 -1.5618C34.4978 -3.16199 32.5136 -3.68482 30.718 -3.68482V4.31518ZM30.2816 4.0176C30.2143 3.95035 30.1534 3.87391 30.1025 3.79264C30.0519 3.71193 30.0196 3.6398 30.0001 3.58552C29.9621 3.47933 29.984 3.47324 29.984 3.62718H37.984C37.984 1.81978 37.4575 -0.120198 35.9384 -1.63925L30.2816 4.0176ZM29.984 3.62718V30.2612H37.984V3.62718H29.984ZM29.984 30.2612C29.984 30.4358 29.9603 30.4523 29.9895 30.3663C30.0047 30.3216 30.0321 30.2556 30.0783 30.1778C30.1249 30.0992 30.1835 30.0208 30.2522 29.9482L36.0598 35.4502C37.5068 33.9228 37.984 32.0108 37.984 30.2612H29.984ZM30.2522 29.9482C30.4263 29.7644 30.623 29.6518 30.7712 29.5976C30.8999 29.5506 30.9203 29.5732 30.764 29.5732V37.5732C32.5596 37.5732 34.5438 37.0503 36.0598 35.4502L30.2522 29.9482ZM30.764 29.5732C30.6101 29.5732 30.6162 29.5513 30.7223 29.5893C30.7766 29.6088 30.8488 29.6411 30.9295 29.6917C31.0107 29.7426 31.0872 29.8035 31.1544 29.8708L25.4976 35.5276C27.0166 37.0467 28.9566 37.5732 30.764 37.5732V29.5732ZM31.2298 29.9482C31.2985 30.0208 31.3571 30.0992 31.4037 30.1778C31.4499 30.2556 31.4773 30.3216 31.4925 30.3663C31.5217 30.4523 31.498 30.4358 31.498 30.2612H23.498C23.498 32.0108 23.9752 33.9228 25.4222 35.4502L31.2298 29.9482ZM31.498 30.2612V11.6312H23.498V30.2612H31.498ZM27.498 15.6312H28.51V7.63118H27.498V15.6312ZM25.0178 9.6806L16.4618 24.9986L23.4462 28.8998L32.0022 13.5818L25.0178 9.6806ZM16.572 24.8132C16.4897 24.9436 16.4301 25.0167 16.4007 25.0495C16.3719 25.0817 16.3803 25.0659 16.433 25.0282L21.083 31.5381C22.0412 30.8537 22.7719 29.9782 23.336 29.0852L16.572 24.8132ZM16.4812 24.9944C16.9668 24.6582 17.3177 24.6972 17.148 24.6972V32.6972C18.3277 32.6972 19.7518 32.4602 21.0348 31.5719L16.4812 24.9944ZM17.148 24.6972C17.0743 24.6972 17.4003 24.6846 17.817 24.9822L13.167 31.4921C14.4424 32.4031 15.8724 32.6972 17.148 32.6972V24.6972ZM17.817 24.9822C17.9122 25.0503 17.8737 25.0575 17.7551 24.8634L10.9289 29.035C11.4849 29.9449 12.2131 30.8107 13.167 31.4921L17.817 24.9822ZM17.8277 24.9871L9.17974 9.62314L2.20826 13.5472L10.8563 28.9112L17.8277 24.9871ZM5.694 15.5852H6.798V7.58518H5.694V15.5852ZM2.798 11.5852V30.2612H10.798V11.5852H2.798ZM2.798 30.2612C2.798 30.4358 2.77428 30.4523 2.80347 30.3663C2.81867 30.3216 2.84612 30.2556 2.89231 30.1778C2.93894 30.0992 2.99745 30.0208 3.06619 29.9482L8.87381 35.4502C10.3208 33.9228 10.798 32.0108 10.798 30.2612H2.798ZM2.98904 30.032C3.20368 29.7921 3.44365 29.6578 3.60823 29.5976C3.74837 29.5464 3.76481 29.5732 3.578 29.5732V37.5732C5.34782 37.5732 7.41925 37.0783 8.95096 35.3664L2.98904 30.032ZM43.8729 32.2392L42.0384 35.7937L42.0725 35.8113L42.1069 35.8282L43.8729 32.2392ZM39.4569 28.1452L35.9803 30.1233L36.0006 30.159L36.0216 30.1943L39.4569 28.1452ZM39.4109 15.7712L42.8989 17.7293L42.9061 17.7164L42.9132 17.7035L39.4109 15.7712ZM43.5049 11.6312L45.4631 15.1191L45.4731 15.1135L45.483 15.1078L43.5049 11.6312ZM53.9469 10.9412L52.4024 14.6309L52.4392 14.6464L52.4763 14.661L53.9469 10.9412ZM57.3509 13.2412L54.4355 15.9799L54.4566 16.0023L54.478 16.0244L57.3509 13.2412ZM59.5129 16.8752L55.7263 18.1642L55.7306 18.1768L55.7349 18.1893L59.5129 16.8752ZM59.6969 22.9472L62.0969 26.1472L62.1789 26.0857L62.2577 26.0201L59.6969 22.9472ZM43.6429 23.3612H39.6429V27.3612H43.6429V23.3612ZM43.6429 19.7732V15.7732H39.6429V19.7732H43.6429ZM55.2349 19.7732L57.8689 22.7835L65.8807 15.7732H55.2349V19.7732ZM54.4989 20.4172H50.4989V29.2323L57.1329 23.4275L54.4989 20.4172ZM53.9469 17.2892L50.2703 18.8649L50.2808 18.8894L50.2917 18.9137L53.9469 17.2892ZM52.3369 15.3572L50.1894 18.7318L50.2231 18.7532L50.2571 18.774L52.3369 15.3572ZM46.9089 15.4952L49.0979 18.8431L49.0979 18.8431L46.9089 15.4952ZM46.0349 26.8112L43.1669 29.5995L43.1866 29.6197L43.2065 29.6396L46.0349 26.8112ZM53.4409 28.1912L54.201 32.1183L53.4409 28.1912ZM56.1089 27.3172L54.3831 23.7086L54.3737 23.7132L56.1089 27.3172ZM57.9949 26.9952L57.1272 30.8999L57.2317 30.9232L57.3373 30.9408L57.9949 26.9952ZM59.2829 27.7312L56.1124 30.17L59.2829 27.7312ZM59.7889 29.1112L55.7958 29.3461L55.8027 29.4626L55.8163 29.5786L59.7889 29.1112ZM59.4669 30.6752L62.9532 32.6362L62.9782 32.5918L63.0021 32.5467L59.4669 30.6752ZM58.0869 31.9172L56.2309 28.3739L56.1829 28.399L56.1356 28.4254L58.0869 31.9172ZM54.5449 33.2052L53.7255 29.29L53.6718 29.3013L53.6184 29.314L54.5449 33.2052ZM50.7729 29.6652C48.574 29.6652 46.906 29.2736 45.639 28.6502L42.1069 35.8282C44.7039 37.1061 47.6358 37.6652 50.7729 37.6652V29.6652ZM45.7075 28.6847C44.4342 28.0275 43.5323 27.1691 42.8922 26.0961L36.0216 30.1943C37.4669 32.6172 39.509 34.4882 42.0384 35.7937L45.7075 28.6847ZM42.9336 26.1671C42.3186 25.0862 41.9389 23.7056 41.9389 21.8892H33.9389C33.9389 24.8567 34.5713 27.6469 35.9803 30.1233L42.9336 26.1671ZM41.9389 21.8892C41.9389 20.1319 42.3043 18.7883 42.8989 17.7293L35.923 13.813C34.5549 16.25 33.9389 18.9852 33.9389 21.8892H41.9389ZM42.9132 17.7035C43.5398 16.5678 44.3737 15.7307 45.4631 15.1191L41.5468 8.14324C39.1401 9.49434 37.2447 11.4172 35.9086 13.8389L42.9132 17.7035ZM45.483 15.1078C46.6032 14.4705 47.9189 14.1132 49.5309 14.1132V6.11318C46.6656 6.11318 43.964 6.76787 41.5268 8.15452L45.483 15.1078ZM49.5309 14.1132C50.6982 14.1132 51.6354 14.3099 52.4024 14.6309L55.4915 7.25142C53.6211 6.46846 51.6143 6.11318 49.5309 6.11318V14.1132ZM52.4763 14.661C53.259 14.9705 53.8971 15.4067 54.4355 15.9799L60.2663 10.5025C58.9035 9.05169 57.2722 7.95456 55.4176 7.22134L52.4763 14.661ZM54.478 16.0244C54.9726 16.5349 55.4041 17.2178 55.7263 18.1642L63.2995 15.5861C62.6404 13.6499 61.6306 11.9101 60.2239 10.458L54.478 16.0244ZM55.7349 18.1893C56.056 19.1123 56.2489 20.238 56.2489 21.6132H64.2489C64.2489 19.4924 63.9512 17.4594 63.2909 15.5611L55.7349 18.1893ZM56.2489 21.6132C56.2489 21.4876 56.2687 21.2075 56.4149 20.8543C56.5695 20.4806 56.8199 20.1379 57.1362 19.8743L62.2577 26.0201C63.7342 24.7896 64.2489 23.1009 64.2489 21.6132H56.2489ZM57.2969 19.7472C57.6086 19.5134 57.8845 19.4191 58.0223 19.3837C58.1537 19.3499 58.1901 19.3612 58.0869 19.3612V27.3612C59.2228 27.3612 60.7548 27.1538 62.0969 26.1472L57.2969 19.7472ZM58.0869 19.3612H43.6429V27.3612H58.0869V19.3612ZM47.6429 23.3612V19.7732H39.6429V23.3612H47.6429ZM43.6429 23.7732H55.2349V15.7732H43.6429V23.7732ZM52.6009 16.7629L51.8649 17.4069L57.1329 23.4275L57.8689 22.7835L52.6009 16.7629ZM58.4989 20.4172C58.4989 18.8031 58.2675 17.1617 57.6022 15.6646L50.2917 18.9137C50.3623 19.0727 50.4989 19.5166 50.4989 20.4172H58.4989ZM57.6235 15.7135C56.9725 14.1945 55.9242 12.858 54.4167 11.9404L50.2571 18.774C50.2456 18.7669 50.2321 18.7573 50.2188 18.7459C50.2057 18.7345 50.1979 18.7258 50.1955 18.7229C50.1895 18.7157 50.2216 18.7512 50.2703 18.8649L57.6235 15.7135ZM54.4844 11.9825C53.0175 11.049 51.3791 10.7132 49.8069 10.7132V18.7132C50.0328 18.7132 50.1598 18.7374 50.2117 18.7506C50.2584 18.7625 50.2401 18.7641 50.1894 18.7318L54.4844 11.9825ZM49.8069 10.7132C48.0455 10.7132 46.2837 11.1248 44.7199 12.1473L49.0979 18.8431C49.1288 18.8229 49.299 18.7132 49.8069 18.7132V10.7132ZM44.7199 12.1473C43.1927 13.1459 42.1054 14.5435 41.4043 16.1459L48.7336 19.3525C48.8912 18.9922 49.0305 18.8871 49.0979 18.8431L44.7199 12.1473ZM41.4043 16.1459C40.6999 17.7561 40.4249 19.512 40.4249 21.2912H48.4249C48.4249 20.3104 48.5793 19.705 48.7336 19.3525L41.4043 16.1459ZM40.4249 21.2912V21.6592H48.4249V21.2912H40.4249ZM40.4249 21.6592C40.4249 24.5068 41.0698 27.4424 43.1669 29.5995L48.9029 24.0229C48.8534 23.9719 48.4249 23.4729 48.4249 21.6592H40.4249ZM43.2065 29.6396C45.306 31.7391 48.1098 32.4672 50.9109 32.4672V24.4672C49.4187 24.4672 48.9719 24.0913 48.8633 23.9828L43.2065 29.6396ZM50.9109 32.4672C51.9673 32.4672 53.0733 32.3366 54.201 32.1183L52.6808 24.2641C51.9072 24.4138 51.3266 24.4672 50.9109 24.4672V32.4672ZM54.201 32.1183C55.4712 31.8725 56.6902 31.4768 57.8442 30.9212L54.3737 23.7132C53.8717 23.9549 53.312 24.1419 52.6808 24.2641L54.201 32.1183ZM57.8347 30.9257C58.0374 30.8288 57.7289 31.0336 57.1272 30.8999L58.8626 23.0904C57.1569 22.7114 55.5911 23.1309 54.3831 23.7086L57.8347 30.9257ZM57.3373 30.9408C57.2074 30.9191 56.993 30.8621 56.7464 30.7212C56.4931 30.5764 56.2764 30.3831 56.1124 30.17L62.4534 25.2923C61.4585 23.9989 60.0808 23.2877 58.6525 23.0496L57.3373 30.9408ZM56.1124 30.17C56.0246 30.0558 55.9432 29.9139 55.8839 29.7522C55.8251 29.5917 55.8019 29.45 55.7958 29.3461L63.782 28.8763C63.7062 27.587 63.2685 26.3519 62.4534 25.2923L56.1124 30.17ZM55.8163 29.5786C55.7963 29.4084 55.8052 29.239 55.8366 29.0866C55.8671 28.9382 55.9114 28.8422 55.9318 28.8036L63.0021 32.5467C63.609 31.4004 63.9292 30.0689 63.7615 28.6438L55.8163 29.5786ZM55.9806 28.7141C56.1798 28.36 56.3872 28.292 56.2309 28.3739L59.943 35.4605C61.0747 34.8677 62.202 33.9717 62.9532 32.6362L55.9806 28.7141ZM56.1356 28.4254C55.4886 28.787 54.6976 29.0866 53.7255 29.29L55.3644 37.1203C57.0296 36.7718 58.5999 36.2127 60.0382 35.409L56.1356 28.4254ZM53.6184 29.314C52.6101 29.554 51.664 29.6652 50.7729 29.6652V37.6652C52.3352 37.6652 53.9037 37.4697 55.4714 37.0964L53.6184 29.314ZM64.289 32.6532L61.4606 35.4816L64.289 32.6532ZM64.243 11.1252L61.4146 8.29675V8.29675L64.243 11.1252ZM69.303 11.1252L66.403 13.8802L66.4383 13.9173L66.4746 13.9536L69.303 11.1252ZM70.177 16.0932V20.0932H74.177V16.0932H70.177ZM69.717 16.0932L65.7947 15.3087L64.8378 20.0932H69.717V16.0932ZM77.031 10.1132L77.2767 14.1056L77.3134 14.1034L77.35 14.1004L77.031 10.1132ZM78.779 10.7112L75.7563 13.3309L75.8497 13.4387L75.9506 13.5396L78.779 10.7112ZM79.469 12.8732L75.4708 12.9943L75.4729 13.0626L75.4773 13.1307L79.469 12.8732ZM78.871 15.1272L75.7981 12.5664L75.755 12.6182L75.7136 12.6714L78.871 15.1272ZM76.663 16.1392L77.0095 20.1241L77.0701 20.1189L77.1304 20.1118L76.663 16.1392ZM75.605 16.2312L75.2585 12.2462L75.2555 12.2465L75.605 16.2312ZM71.695 17.7492L68.8666 14.9208L68.8409 14.9465L68.8156 14.9726L71.695 17.7492ZM69.533 32.6532L66.7046 29.8248L66.6683 29.861L66.633 29.8982L69.533 32.6532ZM66.957 29.5732C66.7163 29.5732 66.6586 29.5405 66.72 29.5617C66.7534 29.5732 66.8138 29.598 66.8894 29.6443C66.966 29.6912 67.0445 29.7518 67.1174 29.8248L61.4606 35.4816C63.0533 37.0743 65.1063 37.5732 66.957 37.5732V29.5732ZM67.1174 29.8248C67.1843 29.8917 67.2421 29.9654 67.2883 30.0401C67.334 30.114 67.36 30.1752 67.3734 30.2133C67.3987 30.2854 67.369 30.2454 67.369 30.0312H59.369C59.369 31.8867 59.8868 33.9078 61.4606 35.4816L67.1174 29.8248ZM67.369 30.0312V13.7012H59.369V30.0312H67.369ZM67.369 13.7012C67.369 13.4658 67.4004 13.4177 67.3754 13.4914C67.3618 13.5315 67.3335 13.6013 67.2809 13.6879C67.2277 13.7758 67.1577 13.8673 67.0714 13.9536L61.4146 8.29675C59.8354 9.87596 59.369 11.9141 59.369 13.7012H67.369ZM67.0714 13.9536C67.0166 14.0084 66.9524 14.0603 66.8821 14.1046C66.8122 14.1488 66.7495 14.1772 66.7025 14.1944C66.6095 14.2282 66.6136 14.2052 66.773 14.2052V6.20518C64.9058 6.20518 62.9478 6.76353 61.4146 8.29675L67.0714 13.9536ZM66.773 14.2052C66.9624 14.2052 66.9708 14.2323 66.8665 14.1944C66.8123 14.1746 66.7358 14.1401 66.6486 14.0839C66.5606 14.0271 66.4769 13.9579 66.403 13.8802L72.203 8.37018C70.6534 6.73905 68.6225 6.20518 66.773 6.20518V14.2052ZM66.4746 13.9536C66.3883 13.8673 66.3184 13.7758 66.2651 13.6879C66.2126 13.6013 66.1842 13.5315 66.1706 13.4914C66.1456 13.4177 66.177 13.4658 66.177 13.7012H74.177C74.177 11.9141 73.7106 9.87596 72.1314 8.29675L66.4746 13.9536ZM66.177 13.7012V16.0932H74.177V13.7012H66.177ZM70.177 12.0932H69.717V20.0932H70.177V12.0932ZM73.6393 16.8776C73.855 15.7992 74.2516 15.2624 74.6631 14.9312L69.647 8.69913C67.5438 10.392 66.315 12.7071 65.7947 15.3087L73.6393 16.8776ZM74.6631 14.9312C75.1359 14.5507 75.9115 14.1896 77.2767 14.1056L76.7853 6.12073C74.1638 6.28205 71.6888 7.05569 69.647 8.69913L74.6631 14.9312ZM77.35 14.1004C77.3189 14.1029 77.0872 14.1173 76.7483 14.0013C76.379 13.875 76.0255 13.6416 75.7563 13.3309L81.8018 8.09146C80.3533 6.42015 78.3761 5.99279 76.712 6.12592L77.35 14.1004ZM75.9506 13.5396C75.6164 13.2054 75.4952 12.891 75.4629 12.7898C75.4339 12.6991 75.4632 12.7432 75.4708 12.9943L83.4672 12.752C83.425 11.3586 83.1079 9.38322 81.6074 7.88275L75.9506 13.5396ZM75.4773 13.1307C75.4862 13.2681 75.4662 13.2485 75.4993 13.1239C75.5367 12.983 75.6252 12.774 75.7981 12.5664L81.9439 17.6879C83.2505 16.1199 83.5659 14.2467 83.4607 12.6157L75.4773 13.1307ZM75.7136 12.6714C75.9518 12.3651 76.2063 12.2148 76.3304 12.1579C76.4356 12.1097 76.4183 12.1404 76.1956 12.1666L77.1304 20.1118C78.7088 19.9261 80.6747 19.3235 82.0284 17.5829L75.7136 12.6714ZM76.3165 12.1542L75.2585 12.2462L75.9515 20.2161L77.0095 20.1241L76.3165 12.1542ZM75.2555 12.2465C72.9785 12.4462 70.6311 13.1563 68.8666 14.9208L74.5234 20.5776C74.4763 20.6248 74.7355 20.3228 75.9546 20.2159L75.2555 12.2465ZM68.8156 14.9726C67.0409 16.8132 66.453 19.197 66.453 21.4752H74.453C74.453 20.9929 74.5155 20.7179 74.5583 20.5896C74.5953 20.4785 74.6134 20.4852 74.5744 20.5257L68.8156 14.9726ZM66.453 21.4752V30.0312H74.453V21.4752H66.453ZM66.453 30.0312C66.453 30.2454 66.4233 30.2854 66.4486 30.2133C66.462 30.1752 66.488 30.114 66.5337 30.0401C66.5799 29.9654 66.6377 29.8917 66.7046 29.8248L72.3614 35.4816C73.9353 33.9078 74.453 31.8867 74.453 30.0312H66.453ZM66.633 29.8982C66.7131 29.8139 66.8019 29.7416 66.8921 29.684C66.9814 29.627 67.0571 29.5939 67.1067 29.5762C67.2 29.5429 67.1735 29.5732 66.957 29.5732V37.5732C68.7993 37.5732 70.8637 37.0601 72.433 35.4082L66.633 29.8982ZM82.326 32.6532L79.4976 35.4816L82.326 32.6532ZM82.28 11.1252L79.4516 8.29675L79.4516 8.29675L82.28 11.1252ZM87.34 11.1252L84.44 13.8802L84.4754 13.9173L84.5116 13.9536L87.34 11.1252ZM88.214 16.0932V20.0932H92.214V16.0932H88.214ZM87.754 16.0932L83.8317 15.3087L82.8748 20.0932H87.754V16.0932ZM95.068 10.1132L95.3137 14.1056L95.3504 14.1034L95.387 14.1004L95.068 10.1132ZM96.816 10.7112L93.7933 13.3309L93.8867 13.4387L93.9876 13.5396L96.816 10.7112ZM97.506 12.8732L93.5079 12.9943L93.5099 13.0626L93.5143 13.1307L97.506 12.8732ZM96.908 15.1272L93.8352 12.5664L93.792 12.6182L93.7506 12.6714L96.908 15.1272ZM94.7 16.1392L95.0466 20.1241L95.1071 20.1189L95.1674 20.1118L94.7 16.1392ZM93.642 16.2312L93.2955 12.2462L93.2925 12.2465L93.642 16.2312ZM89.732 17.7492L86.9036 14.9208L86.8779 14.9465L86.8527 14.9726L89.732 17.7492ZM87.57 32.6532L84.7416 29.8248L84.7054 29.861L84.67 29.8982L87.57 32.6532ZM84.994 29.5732C84.7534 29.5732 84.6957 29.5405 84.757 29.5617C84.7904 29.5732 84.8508 29.598 84.9264 29.6443C85.003 29.6912 85.0815 29.7518 85.1545 29.8248L79.4976 35.4816C81.0904 37.0743 83.1433 37.5732 84.994 37.5732V29.5732ZM85.1545 29.8248C85.2214 29.8917 85.2792 29.9654 85.3254 30.0401C85.371 30.114 85.3971 30.1752 85.4104 30.2133C85.4357 30.2854 85.406 30.2454 85.406 30.0312H77.406C77.406 31.8867 77.9238 33.9078 79.4976 35.4816L85.1545 29.8248ZM85.406 30.0312V13.7012H77.406V30.0312H85.406ZM85.406 13.7012C85.406 13.4658 85.4374 13.4177 85.4125 13.4914C85.3988 13.5315 85.3705 13.6013 85.318 13.6879C85.2647 13.7758 85.1948 13.8673 85.1085 13.9536L79.4516 8.29675C77.8724 9.87596 77.406 11.9141 77.406 13.7012H85.406ZM85.1085 13.9536C85.0537 14.0084 84.9894 14.0603 84.9191 14.1046C84.8493 14.1488 84.7866 14.1772 84.7395 14.1944C84.6466 14.2282 84.6506 14.2052 84.81 14.2052V6.20518C82.9428 6.20518 80.9848 6.76353 79.4516 8.29675L85.1085 13.9536ZM84.81 14.2052C84.9994 14.2052 85.0078 14.2323 84.9036 14.1944C84.8493 14.1746 84.7729 14.1401 84.6857 14.0839C84.5977 14.0271 84.5139 13.9579 84.44 13.8802L90.24 8.37018C88.6905 6.73905 86.6595 6.20518 84.81 6.20518V14.2052ZM84.5116 13.9536C84.4253 13.8673 84.3554 13.7758 84.3021 13.6879C84.2496 13.6013 84.2213 13.5315 84.2076 13.4914C84.1826 13.4177 84.214 13.4658 84.214 13.7012H92.214C92.214 11.9141 91.7477 9.87596 90.1685 8.29675L84.5116 13.9536ZM84.214 13.7012V16.0932H92.214V13.7012H84.214ZM88.214 12.0932H87.754V20.0932H88.214V12.0932ZM91.6764 16.8776C91.8921 15.7992 92.2886 15.2624 92.7001 14.9312L87.684 8.69913C85.5808 10.392 84.352 12.7071 83.8317 15.3087L91.6764 16.8776ZM92.7001 14.9312C93.1729 14.5507 93.9486 14.1896 95.3137 14.1056L94.8224 6.12073C92.2009 6.28205 89.7259 7.05569 87.684 8.69913L92.7001 14.9312ZM95.387 14.1004C95.3559 14.1029 95.1242 14.1173 94.7853 14.0013C94.416 13.875 94.0626 13.6416 93.7933 13.3309L99.8388 8.09146C98.3903 6.42015 96.4132 5.99279 94.7491 6.12592L95.387 14.1004ZM93.9876 13.5396C93.6534 13.2054 93.5322 12.891 93.4999 12.7898C93.471 12.6991 93.5003 12.7432 93.5079 12.9943L101.504 12.752C101.462 11.3586 101.145 9.38322 99.6445 7.88275L93.9876 13.5396ZM93.5143 13.1307C93.5232 13.2681 93.5033 13.2485 93.5363 13.1239C93.5737 12.983 93.6622 12.774 93.8352 12.5664L99.9809 17.6879C101.288 16.1199 101.603 14.2467 101.498 12.6157L93.5143 13.1307ZM93.7506 12.6714C93.9889 12.3651 94.2434 12.2148 94.3674 12.1579C94.4726 12.1097 94.4554 12.1404 94.2327 12.1666L95.1674 20.1118C96.7458 19.9261 98.7117 19.3235 100.065 17.5829L93.7506 12.6714ZM94.3535 12.1542L93.2955 12.2462L93.9886 20.2161L95.0466 20.1241L94.3535 12.1542ZM93.2925 12.2465C91.0155 12.4462 88.6681 13.1563 86.9036 14.9208L92.5605 20.5776C92.5133 20.6248 92.7726 20.3228 93.9916 20.2159L93.2925 12.2465ZM86.8527 14.9726C85.0779 16.8132 84.49 19.197 84.49 21.4752H92.49C92.49 20.9929 92.5525 20.7179 92.5953 20.5896C92.6323 20.4785 92.6505 20.4852 92.6114 20.5257L86.8527 14.9726ZM84.49 21.4752V30.0312H92.49V21.4752H84.49ZM84.49 30.0312C84.49 30.2454 84.4604 30.2854 84.4856 30.2133C84.499 30.1752 84.525 30.114 84.5707 30.0401C84.6169 29.9654 84.6747 29.8917 84.7416 29.8248L90.3985 35.4816C91.9723 33.9078 92.49 31.8867 92.49 30.0312H84.49ZM84.67 29.8982C84.7501 29.8139 84.8389 29.7416 84.9292 29.684C85.0184 29.627 85.0941 29.5939 85.1437 29.5762C85.2371 29.5429 85.2105 29.5732 84.994 29.5732V37.5732C86.8363 37.5732 88.9007 37.0601 90.47 35.4082L84.67 29.8982ZM104.102 39.5072L108.068 38.9898L108.067 38.9783L108.065 38.9667L104.102 39.5072ZM104.47 37.3452L100.826 35.6955L100.817 35.7148L100.808 35.7342L104.47 37.3452ZM107.552 30.5372H111.552L103.908 28.8875L107.552 30.5372ZM107.552 33.3892L103.885 34.9877L111.552 33.3892H107.552ZM99.4097 14.7132L95.6763 16.1491L95.7078 16.2311L95.743 16.3117L99.4097 14.7132ZM99.0877 12.5052L95.1468 11.8198L95.1342 11.8921L95.1243 11.9647L99.0877 12.5052ZM100.1 10.8492L102.442 14.0919L102.457 14.0807L102.472 14.0694L100.1 10.8492ZM104.47 10.8032L101.947 13.9076L102.052 13.993L102.163 14.0711L104.47 10.8032ZM105.896 12.9652L109.618 11.501L109.614 11.4903L109.61 11.4796L105.896 12.9652ZM111.324 26.7652V30.7652H117.195L115.046 25.301L111.324 26.7652ZM109.852 26.7652L106.145 25.2626L103.914 30.7652H109.852V26.7652ZM115.464 12.9192L111.765 11.3962L111.761 11.4064L111.757 11.4166L115.464 12.9192ZM116.89 10.8032L119.196 14.071L119.214 14.0586L119.232 14.0459L116.89 10.8032ZM120.984 10.8492L118.254 13.7734L118.355 13.8671L118.461 13.9536L120.984 10.8492ZM121.858 12.4592L117.894 12.9996L117.906 13.0875L117.922 13.1747L121.858 12.4592ZM121.49 14.6672L117.858 12.9909L117.843 13.0221L117.83 13.0535L121.49 14.6672ZM110.68 39.1852L114.339 40.7997L114.34 40.7989L110.68 39.1852ZM109.116 41.3012L106.98 37.9192L106.938 37.9456L106.897 37.973L109.116 41.3012ZM107 37.8532C106.96 37.8532 107.02 37.848 107.146 37.8887C107.279 37.932 107.429 38.0095 107.564 38.1215L102.479 44.2969C103.841 45.4186 105.45 45.8532 107 45.8532V37.8532ZM107.564 38.1215C107.684 38.2195 107.816 38.3674 107.919 38.5596C108.022 38.7484 108.057 38.9073 108.068 38.9898L100.135 40.0245C100.351 41.6773 101.129 43.1856 102.479 44.2969L107.564 38.1215ZM108.065 38.9667C108.071 39.0113 108.073 39.05 108.072 39.0804C108.071 39.1106 108.069 39.1283 108.068 39.1319C108.067 39.1381 108.076 39.0817 108.131 38.9561L100.808 35.7342C100.242 37.0212 99.9259 38.4901 100.138 40.0476L108.065 38.9667ZM108.114 38.9948L111.196 32.1868L103.908 28.8875L100.826 35.6955L108.114 38.9948ZM103.552 30.5372V33.3892H111.552V30.5372H103.552ZM111.218 31.7906L103.076 13.1146L95.743 16.3117L103.885 34.9877L111.218 31.7906ZM103.143 13.2773C103.018 12.9515 103.07 12.9034 103.051 13.0456L95.1243 11.9647C94.9209 13.4562 95.1882 14.8802 95.6763 16.1491L103.143 13.2773ZM103.029 13.1905C103.013 13.2809 102.966 13.451 102.846 13.648C102.723 13.8485 102.573 13.9971 102.442 14.0919L97.7577 7.60646C96.3124 8.65026 95.4381 10.1447 95.1468 11.8198L103.029 13.1905ZM102.472 14.0694C102.394 14.127 102.323 14.1665 102.268 14.1922C102.214 14.2174 102.18 14.2271 102.175 14.2286C102.169 14.2301 102.191 14.2239 102.244 14.2176C102.298 14.2112 102.379 14.2052 102.492 14.2052V6.20518C100.957 6.20518 99.2228 6.52669 97.7269 7.62896L102.472 14.0694ZM102.492 14.2052C102.59 14.2052 102.562 14.2175 102.45 14.1835C102.326 14.1463 102.14 14.0645 101.947 13.9076L106.992 7.69872C105.593 6.56241 103.951 6.20518 102.492 6.20518V14.2052ZM102.163 14.0711C102.026 13.9744 101.941 13.8896 101.902 13.8463C101.862 13.8032 101.856 13.7893 101.878 13.8221C101.899 13.8542 101.939 13.9195 101.993 14.0274C102.048 14.1346 102.111 14.274 102.182 14.4507L109.61 11.4796C109.094 10.1917 108.26 8.58274 106.776 7.53531L102.163 14.0711ZM102.173 14.4293L107.601 28.2293L115.046 25.301L109.618 11.501L102.173 14.4293ZM111.324 22.7652H109.852V30.7652H111.324V22.7652ZM113.559 28.2677L119.171 14.4217L111.757 11.4166L106.145 25.2626L113.559 28.2677ZM119.162 14.4422C119.305 14.0952 119.412 13.9135 119.459 13.8436C119.48 13.8124 119.475 13.8246 119.438 13.8642C119.401 13.9041 119.323 13.9818 119.196 14.071L114.583 7.53531C113.128 8.56261 112.29 10.1209 111.765 11.3962L119.162 14.4422ZM119.232 14.0459C119.072 14.161 118.944 14.2041 118.901 14.2156C118.867 14.2249 118.921 14.2052 119.098 14.2052V6.20518C117.627 6.20518 115.984 6.523 114.548 7.56046L119.232 14.0459ZM119.098 14.2052C119.142 14.2052 119.05 14.2115 118.875 14.1516C118.685 14.0868 118.46 13.9653 118.254 13.7734L123.713 7.92496C122.329 6.63352 120.627 6.20518 119.098 6.20518V14.2052ZM118.461 13.9536C118.315 13.8349 118.168 13.6668 118.055 13.459C117.945 13.2561 117.906 13.0867 117.894 12.9996L125.821 11.9187C125.603 10.3223 124.849 8.83608 123.506 7.74472L118.461 13.9536ZM117.922 13.1747C117.909 13.1006 117.904 13.0335 117.904 12.9767C117.904 12.9204 117.909 12.8804 117.912 12.8596C117.919 12.8199 117.918 12.8608 117.858 12.9909L125.121 16.3434C125.738 15.0085 126.099 13.4285 125.793 11.7436L117.922 13.1747ZM117.83 13.0535L107.02 37.5715L114.34 40.7989L125.15 16.2809L117.83 13.0535ZM107.02 37.5706C106.876 37.8976 106.769 38.0614 106.727 38.1186C106.684 38.1765 106.755 38.0614 106.98 37.9192L111.252 44.6831C112.816 43.6949 113.748 42.1408 114.339 40.7997L107.02 37.5706ZM106.897 37.973C106.959 37.9316 107.017 37.9013 107.065 37.8801C107.113 37.8591 107.147 37.8488 107.163 37.8447C107.192 37.8371 107.147 37.8532 107 37.8532V45.8532C108.418 45.8532 109.957 45.5477 111.334 44.6294L106.897 37.973ZM137.889 32.6992L140.792 29.9482L137.889 32.6992ZM137.935 1.18918L135.18 -1.71082L135.142 -1.67551L135.106 -1.63925L137.935 1.18918ZM142.581 0.867179L140.274 4.13505L140.382 4.21133L140.495 4.28031L142.581 0.867179ZM144.099 2.66118L140.573 4.55006L140.581 4.56598L140.59 4.58183L144.099 2.66118ZM154.725 22.0732V26.0732H161.474L158.233 20.1525L154.725 22.0732ZM153.161 22.0732L149.652 20.1525L146.411 26.0732H153.161V22.0732ZM163.787 2.66118L167.295 4.58183L167.304 4.56598L167.313 4.55006L163.787 2.66118ZM165.259 0.867179L167.432 4.22546L167.455 4.21058L167.477 4.19538L165.259 0.867179ZM169.813 1.18918L166.909 3.94016L166.946 3.97939L166.984 4.0176L169.813 1.18918ZM169.859 32.6992L166.955 29.9482L169.859 32.6992ZM165.029 32.6992L162.125 35.4502L162.162 35.4894L162.2 35.5276L165.029 32.6992ZM164.201 11.6312V7.63118H160.201V11.6312H164.201ZM165.213 11.6312L168.705 13.5818L172.029 7.63118H165.213V11.6312ZM156.657 26.9492L160.039 29.0852L160.096 28.9939L160.149 28.8998L156.657 26.9492ZM155.461 28.2832L157.737 31.5719L157.762 31.5552L157.786 31.5381L155.461 28.2832ZM152.195 28.2372L154.52 24.9822L152.195 28.2372ZM151.045 26.9492L147.559 28.9112L147.594 28.9738L147.632 29.035L151.045 26.9492ZM142.397 11.5852V7.58518H135.555L138.911 13.5472L142.397 11.5852ZM143.501 11.5852H147.501V7.58518H143.501V11.5852ZM142.673 32.6992L139.769 29.9482L139.73 29.9896L139.692 30.032L142.673 32.6992ZM140.281 29.5732C140.124 29.5732 140.145 29.5506 140.273 29.5976C140.422 29.6518 140.618 29.7644 140.792 29.9482L134.985 35.4502C136.501 37.0503 138.485 37.5732 140.281 37.5732V29.5732ZM140.792 29.9482C140.861 30.0208 140.92 30.0992 140.966 30.1778C141.013 30.2556 141.04 30.3216 141.055 30.3663C141.084 30.4523 141.061 30.4358 141.061 30.2612H133.061C133.061 32.0108 133.538 33.9228 134.985 35.4502L140.792 29.9482ZM141.061 30.2612V3.62718H133.061V30.2612H141.061ZM141.061 3.62718C141.061 3.47324 141.083 3.47933 141.045 3.58552C141.025 3.6398 140.993 3.71193 140.942 3.79265C140.891 3.87391 140.83 3.95035 140.763 4.0176L135.106 -1.63925C133.587 -0.120199 133.061 1.81978 133.061 3.62718H141.061ZM140.69 4.08918C140.636 4.14008 140.575 4.18725 140.509 4.22711C140.444 4.26673 140.386 4.29196 140.343 4.30693C140.259 4.33654 140.267 4.31518 140.419 4.31518V-3.68482C138.602 -3.68482 136.7 -3.15549 135.18 -1.71082L140.69 4.08918ZM140.419 4.31518C140.62 4.31518 140.688 4.33617 140.66 4.32885C140.624 4.31986 140.472 4.27464 140.274 4.13505L144.887 -2.40069C143.453 -3.41332 141.815 -3.68482 140.419 -3.68482V4.31518ZM140.495 4.28031C140.338 4.18473 140.288 4.11334 140.321 4.15245C140.355 4.19266 140.445 4.31117 140.573 4.55006L147.625 0.772291C146.986 -0.4199 146.058 -1.69579 144.666 -2.54595L140.495 4.28031ZM140.59 4.58183L151.216 23.9938L158.233 20.1525L147.607 0.740528L140.59 4.58183ZM154.725 18.0732H153.161V26.0732H154.725V18.0732ZM156.669 23.9938L167.295 4.58183L160.278 0.740528L149.652 20.1525L156.669 23.9938ZM167.313 4.55006C167.45 4.29431 167.548 4.15955 167.592 4.10595C167.637 4.05139 167.591 4.12231 167.432 4.22546L163.086 -2.49111C161.762 -1.63459 160.876 -0.37538 160.261 0.772293L167.313 4.55006ZM167.477 4.19538C167.408 4.24153 167.346 4.27375 167.296 4.29536C167.247 4.31673 167.214 4.32604 167.203 4.32885C167.184 4.33364 167.247 4.31518 167.421 4.31518V-3.68482C166.005 -3.68482 164.438 -3.39321 163.04 -2.46102L167.477 4.19538ZM167.421 4.31518C167.577 4.31518 167.557 4.33775 167.428 4.29074C167.28 4.23657 167.083 4.12396 166.909 3.94016L172.716 -1.5618C171.201 -3.16199 169.216 -3.68482 167.421 -3.68482V4.31518ZM166.984 4.0176C166.917 3.95035 166.856 3.87391 166.805 3.79264C166.755 3.71193 166.722 3.6398 166.703 3.58552C166.665 3.47933 166.687 3.47324 166.687 3.62718H174.687C174.687 1.81978 174.16 -0.120198 172.641 -1.63925L166.984 4.0176ZM166.687 3.62718V30.2612H174.687V3.62718H166.687ZM166.687 30.2612C166.687 30.4358 166.663 30.4523 166.692 30.3663C166.707 30.3216 166.735 30.2556 166.781 30.1778C166.828 30.0992 166.886 30.0208 166.955 29.9482L172.762 35.4502C174.209 33.9228 174.687 32.0108 174.687 30.2612H166.687ZM166.955 29.9482C167.129 29.7644 167.326 29.6518 167.474 29.5976C167.603 29.5506 167.623 29.5732 167.467 29.5732V37.5732C169.262 37.5732 171.246 37.0503 172.762 35.4502L166.955 29.9482ZM167.467 29.5732C167.313 29.5732 167.319 29.5513 167.425 29.5893C167.479 29.6088 167.551 29.6411 167.632 29.6917C167.713 29.7426 167.79 29.8035 167.857 29.8708L162.2 35.5276C163.719 37.0467 165.659 37.5732 167.467 37.5732V29.5732ZM167.932 29.9482C168.001 30.0208 168.06 30.0992 168.106 30.1778C168.153 30.2556 168.18 30.3216 168.195 30.3663C168.224 30.4523 168.201 30.4358 168.201 30.2612H160.201C160.201 32.0108 160.678 33.9228 162.125 35.4502L167.932 29.9482ZM168.201 30.2612V11.6312H160.201V30.2612H168.201ZM164.201 15.6312H165.213V7.63118H164.201V15.6312ZM161.72 9.6806L153.164 24.9986L160.149 28.8998L168.705 13.5818L161.72 9.6806ZM153.275 24.8132C153.192 24.9436 153.133 25.0167 153.103 25.0495C153.075 25.0817 153.083 25.0659 153.136 25.0282L157.786 31.5381C158.744 30.8537 159.475 29.9782 160.039 29.0852L153.275 24.8132ZM153.184 24.9944C153.669 24.6582 154.02 24.6972 153.851 24.6972V32.6972C155.03 32.6972 156.454 32.4602 157.737 31.5719L153.184 24.9944ZM153.851 24.6972C153.777 24.6972 154.103 24.6846 154.52 24.9822L149.87 31.4921C151.145 32.4031 152.575 32.6972 153.851 32.6972V24.6972ZM154.52 24.9822C154.615 25.0503 154.576 25.0575 154.458 24.8634L147.632 29.035C148.188 29.9449 148.916 30.8107 149.87 31.4921L154.52 24.9822ZM154.53 24.9871L145.882 9.62314L138.911 13.5472L147.559 28.9112L154.53 24.9871ZM142.397 15.5852H143.501V7.58518H142.397V15.5852ZM139.501 11.5852V30.2612H147.501V11.5852H139.501ZM139.501 30.2612C139.501 30.4358 139.477 30.4523 139.506 30.3663C139.521 30.3216 139.549 30.2556 139.595 30.1778C139.642 30.0992 139.7 30.0208 139.769 29.9482L145.576 35.4502C147.023 33.9228 147.501 32.0108 147.501 30.2612H139.501ZM139.692 30.032C139.906 29.7921 140.146 29.6578 140.311 29.5976C140.451 29.5464 140.467 29.5732 140.281 29.5732V37.5732C142.05 37.5732 144.122 37.0783 145.654 35.3664L139.692 30.032ZM178.92 32.6992L180.675 29.1049L178.92 32.6992ZM175.838 30.0772L172.509 32.296V32.296L175.838 30.0772ZM176.022 22.4412L178.99 25.1223L179.011 25.0989L179.032 25.0752L176.022 22.4412ZM180.208 20.3712L181.016 24.2886L181.046 24.2825L181.075 24.2759L180.208 20.3712ZM190.328 19.7272H194.328V15.7272H190.328V19.7272ZM190.328 23.3152V27.3152H194.328V23.3152H190.328ZM184.118 23.5912L184.755 27.5401L184.805 27.532L184.855 27.5227L184.118 23.5912ZM182.048 24.4192L179.326 21.488L179.272 21.5384L179.219 21.5908L182.048 24.4192ZM182.324 28.1912L179.573 31.095L179.61 31.1302L179.648 31.1644L182.324 28.1912ZM187.292 28.4212L189.326 31.8649L189.349 31.8516L189.371 31.838L187.292 28.4212ZM188.948 26.7192L192.43 28.6874L192.448 28.656L192.465 28.6243L188.948 26.7192ZM188.626 16.0932L185.871 18.9932L185.91 19.0303L185.95 19.0664L188.626 16.0932ZM182.784 15.5412L183.544 19.4683L183.591 19.4591L183.638 19.4488L182.784 15.5412ZM179.61 16.5072L178.141 12.7866L178.047 12.8238L177.954 12.8657L179.61 16.5072ZM177.816 16.7372L176.484 20.5091L176.585 20.5446L176.687 20.5746L177.816 16.7372ZM176.62 15.8172L173.19 17.8752L173.221 17.9282L173.255 17.9802L176.62 15.8172ZM176.666 12.7812L180.058 14.9012L180.086 14.8556L180.113 14.8093L176.666 12.7812ZM178.184 11.6312L179.498 15.4092L179.591 15.3767L179.683 15.3396L178.184 11.6312ZM182.232 10.4352L181.574 6.4896L181.566 6.4909L181.558 6.49223L182.232 10.4352ZM191.57 11.1712L189.87 14.7921L189.914 14.8128L189.959 14.8324L191.57 11.1712ZM195.02 14.3452L191.488 16.2236L191.497 16.2395L191.505 16.2552L195.02 14.3452ZM195.342 32.6532L192.368 29.9773L195.342 32.6532ZM190.512 32.6532L187.538 35.329L187.574 35.3691L187.612 35.4082L190.512 32.6532ZM189.684 28.3292L192.287 25.2922L185.684 19.6323V28.3292H189.684ZM190.006 28.6052L193.945 29.3003L194.341 27.0532L192.609 25.5682L190.006 28.6052ZM188.81 31.3192L185.686 28.8204L185.68 28.8284L185.673 28.8364L188.81 31.3192ZM186.556 33.0672L188.146 36.7374L188.197 36.7154L188.247 36.6919L186.556 33.0672ZM183.382 29.6652C182.255 29.6652 181.38 29.4495 180.675 29.1049L177.164 36.2934C179.096 37.2369 181.196 37.6652 183.382 37.6652V29.6652ZM180.675 29.1049C179.924 28.7381 179.468 28.3116 179.166 27.8584L172.509 32.296C173.679 34.0508 175.278 35.3723 177.164 36.2934L180.675 29.1049ZM179.166 27.8584C178.886 27.4387 178.734 26.9749 178.734 26.3512H170.734C170.734 28.4874 171.317 30.5076 172.509 32.296L179.166 27.8584ZM178.734 26.3512C178.734 25.3876 178.971 25.1431 178.99 25.1223L173.053 19.76C171.355 21.6406 170.734 24.0028 170.734 26.3512H178.734ZM179.032 25.0752C179.088 25.0106 179.523 24.5968 181.016 24.2886L179.399 16.4537C177.028 16.9429 174.672 17.9091 173.011 19.8072L179.032 25.0752ZM181.075 24.2759C182.604 23.9363 184.838 23.7272 187.89 23.7272V15.7272C184.562 15.7272 181.676 15.9474 179.34 16.4664L181.075 24.2759ZM187.89 23.7272H190.328V15.7272H187.89V23.7272ZM186.328 19.7272V23.3152H194.328V19.7272H186.328ZM190.328 19.3152H187.936V27.3152H190.328V19.3152ZM187.936 19.3152C186.246 19.3152 184.701 19.4121 183.38 19.6597L184.855 27.5227C185.497 27.4023 186.497 27.3152 187.936 27.3152V19.3152ZM183.481 19.6422C182.204 19.8482 180.598 20.3065 179.326 21.488L184.769 27.3504C184.654 27.4577 184.552 27.5275 184.483 27.569C184.415 27.6101 184.374 27.6265 184.373 27.6271C184.371 27.6277 184.4 27.6162 184.466 27.5989C184.532 27.5816 184.627 27.5608 184.755 27.5401L183.481 19.6422ZM179.219 21.5908C177.892 22.9174 177.45 24.5902 177.45 26.0752H185.45C185.45 26.0949 185.447 26.2531 185.361 26.4908C185.27 26.7441 185.109 27.0144 184.876 27.2476L179.219 21.5908ZM177.45 26.0752C177.45 27.9466 178.132 29.7306 179.573 31.095L185.075 25.2874C185.17 25.3781 185.285 25.5266 185.365 25.7211C185.443 25.9097 185.45 26.046 185.45 26.0752H177.45ZM179.648 31.1644C181.232 32.5903 183.196 33.0192 184.946 33.0192V25.0192C184.694 25.0192 184.611 24.9876 184.644 24.9978C184.663 25.0039 184.711 25.0212 184.778 25.0585C184.846 25.0964 184.923 25.149 184.999 25.218L179.648 31.1644ZM184.946 33.0192C186.452 33.0192 187.956 32.6748 189.326 31.8649L185.257 24.9775C185.256 24.978 185.245 24.9849 185.211 24.9936C185.174 25.0031 185.091 25.0192 184.946 25.0192V33.0192ZM189.371 31.838C190.649 31.0606 191.688 29.9992 192.43 28.6874L185.465 24.7509C185.409 24.8498 185.345 24.9231 185.212 25.0044L189.371 31.838ZM192.465 28.6243C193.211 27.2468 193.546 25.7531 193.546 24.2352H185.546C185.546 24.5573 185.482 24.7196 185.43 24.814L192.465 28.6243ZM193.546 24.2352V18.9452H185.546V24.2352H193.546ZM193.546 18.9452C193.546 17.16 193.165 14.7974 191.301 13.12L185.95 19.0664C185.798 18.9296 185.689 18.7893 185.617 18.6705C185.546 18.555 185.517 18.4726 185.509 18.4482C185.501 18.425 185.512 18.4495 185.523 18.5366C185.535 18.6233 185.546 18.7569 185.546 18.9452H193.546ZM191.381 13.1932C189.638 11.5373 187.296 11.2192 185.498 11.2192V19.2192C185.736 19.2192 185.921 19.2311 186.061 19.2472C186.201 19.2634 186.279 19.2822 186.307 19.2901C186.371 19.3079 186.151 19.2599 185.871 18.9932L191.381 13.1932ZM185.498 11.2192C184.329 11.2192 183.134 11.37 181.929 11.6336L183.638 19.4488C184.396 19.283 185.01 19.2192 185.498 19.2192V11.2192ZM182.023 11.6141C180.772 11.8562 179.473 12.2609 178.141 12.7866L181.078 20.2278C182.077 19.8335 182.893 19.5941 183.544 19.4683L182.023 11.6141ZM177.954 12.8657C177.835 12.92 178.256 12.6973 178.944 12.8997L176.687 20.5746C178.418 21.0837 180.035 20.7077 181.265 20.1486L177.954 12.8657ZM179.147 12.9652C179.246 13 179.397 13.07 179.564 13.1987C179.735 13.3297 179.878 13.4881 179.984 13.6542L173.255 17.9802C174.052 19.2203 175.199 20.0557 176.484 20.5091L179.147 12.9652ZM180.05 13.7592C180.085 13.8181 180.128 13.9068 180.16 14.0212C180.192 14.1363 180.206 14.2481 180.206 14.3452H172.206C172.206 15.6132 172.552 16.8124 173.19 17.8752L180.05 13.7592ZM180.206 14.3452C180.206 14.4451 180.191 14.5572 180.158 14.6688C180.126 14.7792 180.085 14.8578 180.058 14.9012L173.274 10.6612C172.59 11.7554 172.206 13.0065 172.206 14.3452H180.206ZM180.113 14.8093C179.989 15.0212 179.833 15.183 179.691 15.291C179.557 15.3925 179.473 15.4178 179.498 15.4092L176.869 7.85319C175.486 8.33451 174.111 9.23489 173.218 10.7531L180.113 14.8093ZM179.683 15.3396C180.914 14.8421 181.984 14.5353 182.905 14.3781L181.558 6.49223C179.965 6.76434 178.336 7.25495 176.684 7.92274L179.683 15.3396ZM182.889 14.3808C184.005 14.1948 184.962 14.1132 185.774 14.1132V6.11318C184.439 6.11318 183.035 6.24618 181.574 6.4896L182.889 14.3808ZM185.774 14.1132C187.778 14.1132 189.075 14.4188 189.87 14.7921L193.269 7.55023C191.059 6.51288 188.492 6.11318 185.774 6.11318V14.1132ZM189.959 14.8324C190.693 15.1556 191.155 15.5975 191.488 16.2236L198.551 12.4667C197.351 10.2102 195.513 8.53613 193.181 7.50992L189.959 14.8324ZM191.505 16.2552C191.852 16.8941 192.17 17.9986 192.17 19.8192H200.17C200.17 17.1624 199.72 14.6176 198.534 12.4351L191.505 16.2552ZM192.17 19.8192V30.0312H200.17V19.8192H192.17ZM192.17 30.0312C192.17 30.283 192.138 30.3657 192.148 30.3332C192.154 30.314 192.172 30.2656 192.209 30.1987C192.247 30.1306 192.299 30.054 192.368 29.9773L198.315 35.329C199.741 33.7446 200.17 31.7812 200.17 30.0312H192.17ZM192.368 29.9773C192.529 29.7984 192.725 29.6746 192.894 29.6098C193.042 29.5528 193.085 29.5732 192.95 29.5732V37.5732C194.806 37.5732 196.814 36.9969 198.315 35.329L192.368 29.9773ZM192.95 29.5732C192.817 29.5732 192.845 29.5534 192.97 29.6008C193.034 29.6246 193.111 29.6618 193.194 29.7162C193.276 29.7709 193.35 29.8335 193.412 29.8982L187.612 35.4082C189.119 36.9946 191.083 37.5732 192.95 37.5732V29.5732ZM193.485 29.9773C193.554 30.054 193.606 30.1307 193.644 30.1987C193.682 30.2656 193.699 30.314 193.705 30.3332C193.715 30.3657 193.684 30.283 193.684 30.0312H185.684C185.684 31.7812 186.112 33.7446 187.538 35.329L193.485 29.9773ZM193.684 30.0312V28.3292H185.684V30.0312H193.684ZM187.08 31.3662L187.402 31.6422L192.609 25.5682L192.287 25.2922L187.08 31.3662ZM186.066 27.91C185.99 28.3458 185.848 28.6177 185.686 28.8204L191.933 33.818C192.998 32.4873 193.654 30.9498 193.945 29.3003L186.066 27.91ZM185.673 28.8364C185.508 29.0455 185.267 29.2543 184.864 29.4424L188.247 36.6919C189.684 36.0214 190.946 35.0648 191.946 33.802L185.673 28.8364ZM184.965 29.397C184.634 29.5403 184.134 29.6652 183.382 29.6652V37.6652C185.021 37.6652 186.637 37.3914 188.146 36.7374L184.965 29.397ZM206.181 32.6072L204.392 36.1849L204.407 36.1925L204.423 36.2L206.181 32.6072ZM203.007 29.5252L199.429 31.314L199.445 31.3463L199.462 31.3782L203.007 29.5252ZM201.995 15.7712H205.995V11.7712H201.995V15.7712ZM198.039 15.0812L195.211 17.9096L195.256 17.9552L195.303 17.9993L198.039 15.0812ZM198.039 11.2632L200.768 14.1874L200.775 14.1813L198.039 11.2632ZM201.995 10.5732V14.5732H205.995V10.5732H201.995ZM202.915 4.45518L205.67 7.35518L205.707 7.31986L205.743 7.2836L202.915 4.45518ZM208.067 4.45518L205.167 7.21017L205.202 7.24735L205.239 7.28361L208.067 4.45518ZM208.941 10.5732H204.941V14.5732H208.941V10.5732ZM215.289 11.2632L212.461 14.0916L212.509 14.1404L212.56 14.1874L215.289 11.2632ZM208.941 15.7712V11.7712H204.941V15.7712H208.941ZM209.815 27.0412L206.849 29.7248L206.883 29.7628L206.918 29.7998L209.815 27.0412ZM214.001 27.8692L214.9 31.7667V31.7667L214.001 27.8692ZM215.105 27.6852L214.82 23.6953L214.781 23.6981L214.743 23.7016L215.105 27.6852ZM216.163 28.0992L213.19 30.775L213.26 30.8532L213.335 30.9276L216.163 28.0992ZM216.209 31.9172L219.864 33.5417V33.5417L216.209 31.9172ZM214.921 33.1132L216.357 36.8466L216.382 36.837L216.407 36.8271L214.921 33.1132ZM213.265 33.4812L212.748 29.5148L212.648 29.5278L212.549 29.5457L213.265 33.4812ZM211.517 29.6652C209.824 29.6652 208.688 29.3805 207.939 29.0143L204.423 36.2C206.557 37.2445 208.978 37.6652 211.517 37.6652V29.6652ZM207.97 29.0295C207.283 28.6858 206.853 28.2483 206.552 27.6722L199.462 31.3782C200.572 33.5008 202.258 35.1179 204.392 36.1849L207.97 29.0295ZM206.585 27.7363C206.27 27.106 205.995 26.0662 205.995 24.4192H197.995C197.995 26.8815 198.395 29.2457 199.429 31.314L206.585 27.7363ZM205.995 24.4192V15.7712H197.995V24.4192H205.995ZM201.995 11.7712H200.063V19.7712H201.995V11.7712ZM200.063 11.7712C199.986 11.7712 200.05 11.7604 200.204 11.8126C200.371 11.8698 200.581 11.9814 200.775 12.163L195.303 17.9993C196.724 19.3312 198.48 19.7712 200.063 19.7712V11.7712ZM200.867 12.2528C201.061 12.4463 201.199 12.6746 201.278 12.8904C201.352 13.0915 201.349 13.2123 201.349 13.1952H193.349C193.349 14.7989 193.838 16.5369 195.211 17.9096L200.867 12.2528ZM201.349 13.1952C201.349 13.1121 201.361 13.2094 201.289 13.4135C201.208 13.6398 201.045 13.9291 200.768 14.1874L195.31 8.33896C193.777 9.76965 193.349 11.6465 193.349 13.1952H201.349ZM200.775 14.1813C200.581 14.363 200.371 14.4745 200.204 14.5317C200.05 14.584 199.986 14.5732 200.063 14.5732V6.57318C198.48 6.57318 196.724 7.01312 195.303 8.34503L200.775 14.1813ZM200.063 14.5732H201.995V6.57318H200.063V14.5732ZM205.995 10.5732V7.07718H197.995V10.5732H205.995ZM205.995 7.07718C205.995 6.83417 206.028 6.78974 205.999 6.87203C205.984 6.91679 205.952 6.99165 205.895 7.08278C205.836 7.17516 205.761 7.26891 205.67 7.35518L200.16 1.55518C198.488 3.14333 197.995 5.24142 197.995 7.07718H205.995ZM205.743 7.2836C205.683 7.34446 205.614 7.39933 205.541 7.44467C205.469 7.48965 205.407 7.51691 205.364 7.53214C205.282 7.56165 205.304 7.53518 205.491 7.53518V-0.464823C203.63 -0.464823 201.641 0.0727406 200.087 1.62675L205.743 7.2836ZM205.491 7.53518C205.708 7.53518 205.734 7.56549 205.641 7.53214C205.591 7.51443 205.515 7.48133 205.426 7.42436C205.336 7.36675 205.247 7.29447 205.167 7.21017L210.967 1.70018C209.398 0.0482645 207.333 -0.464823 205.491 -0.464823V7.53518ZM205.239 7.28361C205.146 7.19098 205.073 7.09448 205.019 7.00479C204.966 6.91652 204.94 6.84781 204.928 6.81259C204.907 6.75014 204.941 6.81591 204.941 7.07718H212.941C212.941 5.29527 212.493 3.22414 210.895 1.62675L205.239 7.28361ZM204.941 7.07718V10.5732H212.941V7.07718H204.941ZM208.941 14.5732H213.311V6.57318H208.941V14.5732ZM213.311 14.5732C213.391 14.5732 213.31 14.5847 213.132 14.5225C212.936 14.454 212.687 14.3182 212.461 14.0916L218.117 8.43476C216.691 7.00785 214.879 6.57318 213.311 6.57318V14.5732ZM212.56 14.1874C212.283 13.9291 212.12 13.6398 212.04 13.4135C211.967 13.2094 211.979 13.1121 211.979 13.1952H219.979C219.979 11.6465 219.551 9.76965 218.018 8.33896L212.56 14.1874ZM211.979 13.1952C211.979 13.2123 211.976 13.0915 212.05 12.8904C212.129 12.6746 212.267 12.4463 212.461 12.2528L218.117 17.9096C219.49 16.5369 219.979 14.7989 219.979 13.1952H211.979ZM212.461 12.2528C212.687 12.0261 212.936 11.8904 213.132 11.8219C213.31 11.7596 213.391 11.7712 213.311 11.7712V19.7712C214.879 19.7712 216.691 19.3365 218.117 17.9096L212.461 12.2528ZM213.311 11.7712H208.941V19.7712H213.311V11.7712ZM204.941 15.7712V24.1432H212.941V15.7712H204.941ZM204.941 24.1432C204.941 25.9543 205.342 28.0594 206.849 29.7248L212.781 24.3575C212.86 24.4447 212.914 24.5266 212.948 24.5894C212.981 24.6507 212.991 24.6851 212.989 24.6787C212.987 24.6715 212.974 24.6271 212.963 24.5361C212.951 24.445 212.941 24.3159 212.941 24.1432H204.941ZM206.918 29.7998C208.587 31.5516 210.828 32.0072 212.713 32.0072V24.0072C212.544 24.0072 212.425 23.9968 212.348 23.986C212.272 23.9752 212.248 23.9655 212.264 23.9709C212.282 23.9769 212.343 23.9992 212.428 24.0515C212.516 24.105 212.615 24.1812 212.712 24.2826L206.918 29.7998ZM212.713 32.0072C213.439 32.0072 214.173 31.9346 214.9 31.7667L213.102 23.9716C213.032 23.9877 212.907 24.0072 212.713 24.0072V32.0072ZM214.9 31.7667C215.157 31.7075 215.343 31.68 215.467 31.6688L214.743 23.7016C214.192 23.7517 213.642 23.8469 213.102 23.9716L214.9 31.7667ZM215.39 31.675C215.093 31.6963 214.683 31.6663 214.234 31.4907C213.78 31.3129 213.431 31.0425 213.19 30.775L219.136 25.4233C217.994 24.1545 216.418 23.5812 214.82 23.6953L215.39 31.675ZM213.335 30.9276C212.989 30.5817 212.801 30.2433 212.707 30.0368C212.612 29.8287 212.576 29.6795 212.567 29.6353C212.551 29.5621 212.577 29.6495 212.577 29.9852H220.577C220.577 29.3396 220.535 28.6219 220.381 27.9201C220.243 27.2948 219.916 26.1957 218.991 25.2708L213.335 30.9276ZM212.577 29.9852C212.577 30.281 212.528 30.351 212.554 30.2926L219.864 33.5417C220.381 32.3793 220.577 31.1614 220.577 29.9852H212.577ZM212.554 30.2926C212.644 30.0902 212.787 29.8791 212.981 29.699C213.17 29.5237 213.343 29.4362 213.435 29.3993L216.407 36.8271C217.889 36.2343 219.154 35.1397 219.864 33.5417L212.554 30.2926ZM213.485 29.3798C213.519 29.3668 213.481 29.3842 213.34 29.4154C213.205 29.4455 213.011 29.4804 212.748 29.5148L213.782 37.4476C214.624 37.3378 215.532 37.1639 216.357 36.8466L213.485 29.3798ZM212.549 29.5457C212.026 29.6409 211.694 29.6652 211.517 29.6652V37.6652C212.321 37.6652 213.155 37.5667 213.981 37.4167L212.549 29.5457ZM222.438 32.2392L220.531 35.7553L220.566 35.7745L220.602 35.7929L222.438 32.2392ZM218.252 28.0992L214.75 30.0315L218.252 28.0992ZM220 13.2412L217.256 10.3308L217.235 10.3507L217.214 10.3709L220 13.2412ZM223.864 10.9412L225.175 14.7202L225.209 14.7083L225.243 14.6959L223.864 10.9412ZM231.914 10.4812L231.023 14.3806L231.076 14.3928L231.13 14.4035L231.914 10.4812ZM235.088 11.6312L233.217 15.1663L233.33 15.2263L233.447 15.2789L235.088 11.6312ZM236.33 12.8272L232.631 14.3502L232.687 14.4853L232.752 14.616L236.33 12.8272ZM236.606 14.3912L240.579 14.8585L240.58 14.8457L240.582 14.8329L236.606 14.3912ZM236.008 15.8172L232.863 13.3459L232.85 13.3621L232.838 13.3783L236.008 15.8172ZM234.812 16.6452L235.782 20.5257L235.895 20.4977L236.005 20.4631L234.812 16.6452ZM233.156 16.3692L231.152 19.8309L231.258 19.8922L231.367 19.9469L233.156 16.3692ZM231.316 15.6332L230.346 19.5138L230.368 19.5192L230.39 19.5244L231.316 15.6332ZM227.13 15.8632L228.588 19.5882L228.657 19.5611L228.725 19.5315L227.13 15.8632ZM225.336 17.1052L222.346 14.4477L222.342 14.4532L222.337 14.4587L225.336 17.1052ZM224.232 19.0832L220.452 17.7747L220.429 17.8404L220.409 17.9068L224.232 19.0832ZM225.336 26.6272L222.276 29.2037L222.313 29.2472L222.351 29.2896L225.336 26.6272ZM231.316 28.1452L232.101 32.0675L232.194 32.0488L232.286 32.0257L231.316 28.1452ZM233.156 27.4092L231.367 23.8315L231.297 23.8665L231.228 23.9043L233.156 27.4092ZM234.812 27.1792L236.005 23.3613H236.005L234.812 27.1792ZM235.962 28.0532L232.597 30.2162L232.689 30.3582L232.792 30.492L235.962 28.0532ZM236.468 29.4792L232.474 29.7011L232.481 29.8241L232.495 29.9465L236.468 29.4792ZM236.192 31.0432L232.573 29.34L232.549 29.3896L232.527 29.4399L236.192 31.0432ZM234.996 32.1932L233.284 28.5782L233.245 28.5964L233.207 28.6155L234.996 32.1932ZM231.868 33.2972L231.061 29.3794L231.007 29.3907L230.952 29.4035L231.868 33.2972ZM228.878 29.6652C226.946 29.6652 225.451 29.2933 224.274 28.6855L220.602 35.7929C223.106 37.0864 225.903 37.6652 228.878 37.6652V29.6652ZM224.345 28.7231C223.199 28.1012 222.361 27.2666 221.754 26.1669L214.75 30.0315C216.106 32.4891 218.059 34.4145 220.531 35.7553L224.345 28.7231ZM221.754 26.1669C221.157 25.0842 220.78 23.6741 220.78 21.7972H212.78C212.78 24.7656 213.384 27.5568 214.75 30.0315L221.754 26.1669ZM220.78 21.7972C220.78 20.3942 220.994 19.2651 221.344 18.3518L213.873 15.4906C213.118 17.4599 212.78 19.5815 212.78 21.7972H220.78ZM221.344 18.3518C221.701 17.4192 222.186 16.6934 222.786 16.1115L217.214 10.3709C215.728 11.813 214.62 13.5405 213.873 15.4906L221.344 18.3518ZM222.744 16.1515C223.375 15.5566 224.164 15.0711 225.175 14.7202L222.553 7.16215C220.559 7.85394 218.772 8.90175 217.256 10.3308L222.744 16.1515ZM225.243 14.6959C226.244 14.3284 227.439 14.1132 228.878 14.1132V6.11318C226.637 6.11318 224.49 6.44994 222.485 7.1865L225.243 14.6959ZM228.878 14.1132C229.486 14.1132 230.197 14.1919 231.023 14.3806L232.805 6.58175C231.485 6.27983 230.171 6.11318 228.878 6.11318V14.1132ZM231.13 14.4035C231.795 14.5367 232.489 14.7812 233.217 15.1663L236.96 8.09603C235.602 7.37713 234.179 6.85502 232.699 6.55886L231.13 14.4035ZM233.447 15.2789C233.404 15.2598 233.259 15.1869 233.084 15.0185C232.9 14.8415 232.739 14.6115 232.631 14.3502L240.029 11.3042C239.352 9.6603 238.084 8.59287 236.73 7.98349L233.447 15.2789ZM232.752 14.616C232.709 14.5287 232.667 14.4144 232.644 14.2813C232.621 14.1486 232.621 14.0335 232.631 13.9495L240.582 14.8329C240.727 13.5247 240.502 12.2277 239.908 11.0383L232.752 14.616ZM232.633 13.9238C232.646 13.82 232.674 13.7053 232.722 13.5918C232.769 13.4793 232.823 13.3968 232.863 13.3459L239.153 18.2885C239.927 17.3044 240.428 16.1415 240.579 14.8585L232.633 13.9238ZM232.838 13.3783C232.927 13.2622 233.049 13.1405 233.202 13.0344C233.355 12.9288 233.502 12.8639 233.619 12.8273L236.005 20.4631C237.263 20.0702 238.359 19.322 239.179 18.256L232.838 13.3783ZM233.842 12.7646C234.562 12.5846 235.009 12.8237 234.945 12.7915L231.367 19.9469C232.529 20.528 234.081 20.9511 235.782 20.5257L233.842 12.7646ZM235.16 12.9075C234.247 12.3787 233.271 11.9869 232.243 11.742L230.39 19.5244C230.649 19.5862 230.9 19.685 231.152 19.8309L235.16 12.9075ZM232.286 11.7526C231.401 11.5312 230.49 11.4032 229.568 11.4032V19.4032C229.75 19.4032 230.005 19.4285 230.346 19.5138L232.286 11.7526ZM229.568 11.4032C228.205 11.4032 226.832 11.6309 225.535 12.1949L228.725 19.5315C228.838 19.4821 229.091 19.4032 229.568 19.4032V11.4032ZM225.673 12.1382C224.395 12.6381 223.267 13.4117 222.346 14.4477L228.326 19.7626C228.386 19.6947 228.455 19.6402 228.588 19.5882L225.673 12.1382ZM222.337 14.4587C221.467 15.4448 220.863 16.5873 220.452 17.7747L228.012 20.3916C228.153 19.9844 228.286 19.8082 228.335 19.7517L222.337 14.4587ZM220.409 17.9068C220.021 19.1666 219.864 20.4968 219.864 21.8432H227.864C227.864 21.1042 227.952 20.5945 228.055 20.2595L220.409 17.9068ZM219.864 21.8432C219.864 24.4975 220.513 27.1096 222.276 29.2037L228.396 24.0506C228.197 23.8141 227.864 23.2369 227.864 21.8432H219.864ZM222.351 29.2896C224.266 31.4373 226.855 32.3292 229.568 32.3292V24.3292C228.662 24.3292 228.43 24.0863 228.321 23.9647L222.351 29.2896ZM229.568 32.3292C230.416 32.3292 231.262 32.2351 232.101 32.0675L230.532 24.2229C230.143 24.3006 229.825 24.3292 229.568 24.3292V32.3292ZM232.286 32.0257C233.267 31.7805 234.201 31.3998 235.084 30.914L231.228 23.9043C230.885 24.0933 230.592 24.2032 230.346 24.2646L232.286 32.0257ZM234.945 30.9869C234.944 30.9872 234.914 31.0025 234.854 31.022C234.795 31.0416 234.702 31.0667 234.58 31.0836C234.322 31.1196 233.983 31.1109 233.619 30.9971L236.005 23.3613C234.233 22.8076 232.589 23.2208 231.367 23.8315L234.945 30.9869ZM233.619 30.9971C233.452 30.9448 233.249 30.8508 233.047 30.6973C232.845 30.5436 232.697 30.3708 232.597 30.2162L239.327 25.8901C238.539 24.6654 237.384 23.7922 236.005 23.3613L233.619 30.9971ZM232.792 30.492C232.688 30.3571 232.605 30.2038 232.549 30.0463C232.494 29.8919 232.478 29.7695 232.474 29.7011L240.462 29.2573C240.391 27.9836 239.979 26.7153 239.133 25.6143L232.792 30.492ZM232.495 29.9465C232.48 29.8168 232.485 29.6859 232.506 29.566C232.527 29.4487 232.558 29.3716 232.573 29.34L239.811 32.7464C240.343 31.6171 240.598 30.3471 240.441 29.0118L232.495 29.9465ZM232.527 29.4399C232.638 29.1883 232.793 28.9755 232.96 28.8153C233.119 28.6625 233.248 28.5952 233.284 28.5782L236.708 35.8081C237.977 35.2072 239.18 34.1933 239.857 32.6465L232.527 29.4399ZM233.207 28.6155C232.447 28.9958 231.733 29.2412 231.061 29.3794L232.675 37.215C234.089 36.9239 235.46 36.4332 236.785 35.7709L233.207 28.6155ZM230.952 29.4035C230.172 29.587 229.484 29.6652 228.878 29.6652V37.6652C230.173 37.6652 231.479 37.4981 232.784 37.1908L230.952 29.4035ZM239.805 32.6532L236.905 35.4082L236.94 35.4454L236.976 35.4816L239.805 32.6532ZM239.805 1.23518L242.633 4.06361L242.633 4.0636L239.805 1.23518ZM244.957 1.23518L242.057 3.99018L242.128 4.06454L242.202 4.13518L244.957 1.23518ZM245.877 14.8052V18.8052H249.877V14.8052H245.877ZM245.233 14.8052L241.612 13.1056L238.937 18.8052H245.233V14.8052ZM248.361 11.3552L250.362 14.8186L250.374 14.8118L250.386 14.8048L248.361 11.3552ZM257.607 11.1712L255.536 14.5932L255.569 14.6134L255.603 14.6329L257.607 11.1712ZM260.229 14.2992L256.532 15.8262L256.538 15.8407L256.544 15.8551L260.229 14.2992ZM260.183 32.6532L257.354 29.8248L257.318 29.861L257.283 29.8982L260.183 32.6532ZM255.031 32.6532L252.131 35.4082L252.166 35.4454L252.202 35.4816L255.031 32.6532ZM253.283 16.5532L250.133 19.0184L250.192 19.0945L250.256 19.1677L253.283 16.5532ZM247.165 16.8752L244.289 14.0951L244.265 14.1203L244.241 14.1459L247.165 16.8752ZM242.427 29.5732C242.213 29.5732 242.173 29.5435 242.245 29.5688C242.283 29.5821 242.344 29.6082 242.418 29.6539C242.493 29.7001 242.566 29.7579 242.633 29.8248L236.976 35.4816C238.55 37.0554 240.571 37.5732 242.427 37.5732V29.5732ZM242.705 29.8982C242.773 29.9703 242.829 30.0459 242.871 30.1178C242.913 30.1887 242.935 30.2439 242.944 30.2728C242.962 30.3255 242.931 30.2643 242.931 30.0312H234.931C234.931 31.8333 235.403 33.8272 236.905 35.4082L242.705 29.8982ZM242.931 30.0312V3.85718H234.931V30.0312H242.931ZM242.931 3.85718C242.931 3.59591 242.965 3.53014 242.944 3.59259C242.932 3.62781 242.905 3.69652 242.852 3.78479C242.799 3.87448 242.726 3.97098 242.633 4.06361L236.976 -1.59325C235.379 0.00413704 234.931 2.07527 234.931 3.85718H242.931ZM242.633 4.0636C242.566 4.13051 242.493 4.1883 242.418 4.23448C242.344 4.28018 242.283 4.30621 242.245 4.31958C242.173 4.34486 242.213 4.31518 242.427 4.31518V-3.68482C240.571 -3.68482 238.55 -3.16708 236.976 -1.59324L242.633 4.0636ZM242.427 4.31518C242.616 4.31518 242.625 4.34226 242.52 4.30435C242.466 4.28461 242.39 4.25013 242.303 4.19386C242.215 4.1371 242.131 4.06794 242.057 3.99018L247.857 -1.51982C246.307 -3.15095 244.276 -3.68482 242.427 -3.68482V4.31518ZM242.202 4.13518C242.111 4.04891 242.036 3.95516 241.977 3.86278C241.92 3.77165 241.888 3.69679 241.872 3.65203C241.844 3.56974 241.877 3.61417 241.877 3.85718H249.877C249.877 2.02142 249.384 -0.0766697 247.712 -1.66482L242.202 4.13518ZM241.877 3.85718V14.8052H249.877V3.85718H241.877ZM245.877 10.8052H245.233V18.8052H245.877V10.8052ZM248.854 16.5048C249.227 15.7091 249.72 15.1896 250.362 14.8186L246.36 7.89172C244.242 9.11544 242.649 10.8959 241.612 13.1056L248.854 16.5048ZM250.386 14.8048C251.129 14.3684 252.014 14.1132 253.145 14.1132V6.11318C250.719 6.11318 248.414 6.68599 246.336 7.90552L250.386 14.8048ZM253.145 14.1132C254.457 14.1132 255.168 14.3707 255.536 14.5932L259.678 7.74918C257.715 6.56095 255.451 6.11318 253.145 6.11318V14.1132ZM255.603 14.6329C255.906 14.8085 256.238 15.1152 256.532 15.8262L263.926 12.7721C263.054 10.6618 261.638 8.8832 259.611 7.70947L255.603 14.6329ZM256.544 15.8551C256.849 16.5782 257.103 17.7636 257.103 19.5892H265.103C265.103 17.1214 264.774 14.7801 263.914 12.7433L256.544 15.8551ZM257.103 19.5892V30.0312H265.103V19.5892H257.103ZM257.103 30.0312C257.103 30.2454 257.073 30.2854 257.098 30.2133C257.112 30.1752 257.138 30.114 257.184 30.0401C257.23 29.9654 257.288 29.8917 257.354 29.8248L263.011 35.4816C264.585 33.9078 265.103 31.8867 265.103 30.0312H257.103ZM257.283 29.8982C257.363 29.8139 257.452 29.7416 257.542 29.684C257.631 29.627 257.707 29.5939 257.757 29.5762C257.85 29.5429 257.823 29.5732 257.607 29.5732V37.5732C259.449 37.5732 261.514 37.0601 263.083 35.4082L257.283 29.8982ZM257.607 29.5732C257.42 29.5732 257.398 29.5467 257.48 29.5762C257.523 29.5914 257.585 29.6187 257.657 29.6637C257.729 29.709 257.798 29.7639 257.859 29.8248L252.202 35.4816C253.756 37.0356 255.746 37.5732 257.607 37.5732V29.5732ZM257.931 29.8982C257.999 29.9703 258.055 30.0459 258.097 30.1178C258.139 30.1887 258.16 30.2439 258.17 30.2728C258.188 30.3255 258.157 30.2643 258.157 30.0312H250.157C250.157 31.8333 250.629 33.8272 252.131 35.4082L257.931 29.8982ZM258.157 30.0312V19.9112H250.157V30.0312H258.157ZM258.157 19.9112C258.157 18.0429 257.846 15.7169 256.31 13.9387L250.256 19.1677C250.045 18.9242 250.032 18.7697 250.067 18.9062C250.103 19.0446 250.157 19.3584 250.157 19.9112H258.157ZM256.433 14.0879C254.905 12.136 252.7 11.4952 250.707 11.4952V19.4952C250.897 19.4952 250.864 19.525 250.705 19.4598C250.623 19.426 250.52 19.3718 250.411 19.2903C250.302 19.2083 250.208 19.1145 250.133 19.0184L256.433 14.0879ZM250.707 11.4952C248.328 11.4952 246.047 12.2763 244.289 14.0951L250.041 19.6553C250.089 19.6057 250.122 19.5858 250.17 19.5673C250.229 19.5443 250.389 19.4952 250.707 19.4952V11.4952ZM244.241 14.1459C242.546 15.9611 241.877 18.2419 241.877 20.5552H249.877C249.877 19.8018 250.066 19.6292 250.089 19.6045L244.241 14.1459ZM241.877 20.5552V30.0312H249.877V20.5552H241.877ZM241.877 30.0312C241.877 30.3091 241.842 30.3922 241.857 30.3456C241.878 30.2808 241.956 30.0952 242.149 29.8967C242.345 29.6959 242.542 29.6011 242.641 29.5673C242.719 29.5405 242.671 29.5732 242.427 29.5732V37.5732C244.221 37.5732 246.294 37.1064 247.88 35.4786C249.446 33.8704 249.877 31.8024 249.877 30.0312H241.877ZM267.07 22.5332L270.001 19.8114L267.07 22.5332ZM266.334 20.6472L262.352 21.0198L262.355 21.0544L262.359 21.0889L266.334 20.6472ZM264.862 4.91518L268.845 4.54254L268.842 4.50796L268.838 4.47345L264.862 4.91518ZM265.644 1.60318L268.745 4.12987L268.768 4.10236L268.79 4.07446L265.644 1.60318ZM271.716 1.60318L268.571 4.07446L268.593 4.10236L268.615 4.12987L271.716 1.60318ZM272.498 4.91518L268.523 4.47345L268.519 4.50796L268.516 4.54254L272.498 4.91518ZM271.026 20.6472L275.002 21.0889L275.006 21.0544L275.009 21.0198L271.026 20.6472ZM270.29 22.5332L267.359 19.8114L267.305 19.8696L267.253 19.93L270.29 22.5332ZM265.782 32.2852L262.894 35.0528L262.924 35.0835L262.954 35.1136L265.782 32.2852ZM265.782 26.6732L268.611 29.5016L265.782 26.6732ZM271.578 26.6732L268.63 29.3761L268.688 29.4401L268.75 29.5016L271.578 26.6732ZM271.578 32.2852L268.69 29.5176L268.66 29.5496L268.63 29.5823L271.578 32.2852ZM268.726 19.1772C268.777 19.1772 268.968 19.185 269.233 19.2882C269.514 19.3975 269.785 19.578 270.001 19.8114L264.139 25.255C265.447 26.6633 267.154 27.1772 268.726 27.1772V19.1772ZM270.001 19.8114C270.192 20.017 270.281 20.2014 270.314 20.2855C270.343 20.3618 270.326 20.3502 270.31 20.2055L262.359 21.0889C262.507 22.4208 262.957 23.9815 264.139 25.255L270.001 19.8114ZM270.317 20.2745L268.845 4.54254L260.88 5.28782L262.352 21.0198L270.317 20.2745ZM268.838 4.47345C268.801 4.14004 268.831 3.99064 268.836 3.97135C268.838 3.96371 268.834 3.98284 268.816 4.01892C268.798 4.05579 268.774 4.09474 268.745 4.12987L262.543 -0.923513C261.004 0.965543 260.652 3.24468 260.887 5.3569L268.838 4.47345ZM268.79 4.07446C268.751 4.12332 268.697 4.17844 268.63 4.2293C268.563 4.27991 268.503 4.3111 268.463 4.32785C268.386 4.35993 268.443 4.31518 268.726 4.31518V-3.68482C266.474 -3.68482 264.127 -2.9402 262.499 -0.868109L268.79 4.07446ZM268.726 4.31518C268.956 4.31518 268.977 4.35251 268.88 4.31083C268.832 4.28999 268.771 4.25638 268.708 4.20801C268.646 4.15972 268.6 4.11124 268.571 4.07446L274.862 -0.868109C273.269 -2.89479 270.989 -3.68482 268.726 -3.68482V4.31518ZM268.615 4.12987C268.587 4.09474 268.562 4.05579 268.544 4.01892C268.527 3.98284 268.523 3.96371 268.525 3.97135C268.529 3.99064 268.56 4.14004 268.523 4.47345L276.474 5.3569C276.709 3.24468 276.356 0.965543 274.817 -0.923513L268.615 4.12987ZM268.516 4.54254L267.044 20.2745L275.009 21.0198L276.481 5.28782L268.516 4.54254ZM267.051 20.2055C267.035 20.3502 267.017 20.3618 267.047 20.2855C267.08 20.2014 267.168 20.017 267.359 19.8114L273.221 25.255C274.404 23.9815 274.854 22.4208 275.002 21.0889L267.051 20.2055ZM267.253 19.93C267.479 19.6665 267.775 19.4514 268.1 19.3175C268.408 19.1909 268.642 19.1772 268.726 19.1772V27.1772C270.321 27.1772 272.052 26.6247 273.327 25.1363L267.253 19.93ZM268.726 29.3892C268.512 29.3892 268.447 29.3574 268.475 29.3679C268.488 29.3728 268.513 29.384 268.543 29.4035C268.574 29.423 268.597 29.4427 268.611 29.4568L262.954 35.1136C264.573 36.7325 266.643 37.3892 268.726 37.3892V29.3892ZM268.67 29.5176C268.678 29.5253 268.692 29.5423 268.708 29.5674C268.724 29.5926 268.734 29.6149 268.739 29.629C268.744 29.6423 268.741 29.638 268.736 29.6093C268.731 29.5799 268.724 29.5229 268.724 29.4332H260.724C260.724 31.4706 261.372 33.4645 262.894 35.0528L268.67 29.5176ZM268.724 29.4332C268.724 29.2821 268.747 29.2632 268.724 29.3239C268.713 29.3526 268.696 29.388 268.672 29.4246C268.648 29.4611 268.625 29.487 268.611 29.5016L262.954 23.8448C261.393 25.4055 260.724 27.3964 260.724 29.4332H268.724ZM268.611 29.5016C268.597 29.5156 268.574 29.5354 268.543 29.5549C268.513 29.5744 268.488 29.5856 268.475 29.5905C268.447 29.6009 268.512 29.5692 268.726 29.5692V21.5692C266.643 21.5692 264.573 22.2258 262.954 23.8448L268.611 29.5016ZM268.726 29.5692C268.944 29.5692 268.984 29.6019 268.915 29.5755C268.881 29.562 268.83 29.5378 268.773 29.499C268.716 29.4601 268.667 29.4168 268.63 29.3761L274.527 23.9703C272.926 22.2241 270.798 21.5692 268.726 21.5692V29.5692ZM268.75 29.5016C268.735 29.487 268.713 29.4611 268.689 29.4246C268.665 29.388 268.648 29.3526 268.637 29.3239C268.614 29.2632 268.636 29.2821 268.636 29.4332H276.636C276.636 27.3964 275.967 25.4055 274.407 23.8448L268.75 29.5016ZM268.636 29.4332C268.636 29.5229 268.63 29.5799 268.625 29.6093C268.62 29.638 268.617 29.6423 268.622 29.629C268.627 29.6149 268.637 29.5926 268.653 29.5674C268.668 29.5423 268.683 29.5253 268.69 29.5176L274.466 35.0528C275.988 33.4645 276.636 31.4706 276.636 29.4332H268.636ZM268.63 29.5823C268.667 29.5416 268.716 29.4983 268.773 29.4593C268.83 29.4205 268.881 29.3963 268.915 29.3829C268.984 29.3564 268.944 29.3892 268.726 29.3892V37.3892C270.798 37.3892 272.926 36.7343 274.527 34.9881L268.63 29.5823Z" fill="white" mask="url(#path-1-outside-1_9803_2902)"/>
</svg>
