<svg width="63" height="63" viewBox="0 0 63 63" fill="none" xmlns="http://www.w3.org/2000/svg">
<path d="M25.8965 52.1222C27.1116 52.8894 28.3512 53.6169 29.6135 54.3037L29.6256 54.3103L29.6378 54.3167L29.6472 54.3217L29.6807 54.3418L29.7402 54.3715C30.3529 54.6894 31.0333 54.855 31.7238 54.854C32.2316 54.8533 32.7338 54.7624 33.2073 54.5872H33.3513L33.7938 54.3217L33.8032 54.3167L33.8173 54.3093L33.8313 54.3017C38.0905 51.9725 42.0975 49.2091 45.7883 46.0557L45.795 46.0499C51.5828 41.0606 58.544 33.1567 58.544 23.373V23.3729C58.5437 20.0719 57.5201 16.8522 55.6141 14.1571C53.7081 11.462 51.0134 9.42401 47.9012 8.32383C44.7889 7.22366 41.4121 7.11535 38.2358 8.01384C35.7946 8.70437 33.5641 9.96348 31.7205 11.6748C29.8769 9.96348 27.6464 8.70437 25.2052 8.01384C22.0289 7.11535 18.6521 7.22366 15.5398 8.32383C12.4276 9.42401 9.73295 11.462 7.82694 14.1571C5.92092 16.8522 4.89729 20.0719 4.89697 23.3729V23.373C4.89697 33.1569 11.8616 41.0609 17.6456 46.0496L17.6525 46.0555C20.2497 48.2751 23.005 50.3027 25.8965 52.1222ZM25.8965 52.1222C25.8972 52.1226 25.8979 52.123 25.8986 52.1235L26.9637 50.4307L25.8959 52.1218C25.8961 52.1219 25.8963 52.122 25.8965 52.1222Z" fill="#FF1659" stroke="white" stroke-width="4"/>
</svg>
